<mxfile host="app.diagrams.net" agent="Mozilla/5.0 (X11; Linux x86_64) AppleWebKit/537.36 (KHTML, like Gecko) Chrome/133.0.0.0 Safari/537.36" version="24.7.16">
  <diagram name="Page-1" id="kXQDvmvk6kKtqMbIYnJr">
    <mxGraphModel dx="873" dy="448" grid="1" gridSize="10" guides="1" tooltips="1" connect="1" arrows="1" fold="1" page="1" pageScale="1" pageWidth="850" pageHeight="1100" math="0" shadow="0">
      <root>
        <mxCell id="0" />
        <mxCell id="1" parent="0" />
        <mxCell id="NeGIg2A49nrBojpMStaA-61" value="" style="rounded=0;whiteSpace=wrap;html=1;" vertex="1" parent="1">
          <mxGeometry x="340" y="265" width="270" height="105" as="geometry" />
        </mxCell>
        <mxCell id="NeGIg2A49nrBojpMStaA-34" value="" style="rounded=0;whiteSpace=wrap;html=1;fillColor=#000000;" vertex="1" parent="1">
          <mxGeometry x="630" y="140" width="50" height="230" as="geometry" />
        </mxCell>
        <mxCell id="NeGIg2A49nrBojpMStaA-2" value="" style="shape=image;verticalLabelPosition=bottom;labelBackgroundColor=default;verticalAlign=top;aspect=fixed;imageAspect=0;image=data:image/svg+xml,PHN2ZyB4bWxuczp4bGluaz0iaHR0cDovL3d3dy53My5vcmcvMTk5OS94bGluayIgeG1sbnM9Imh0dHA6Ly93d3cudzMub3JnLzIwMDAvc3ZnIiB2ZXJzaW9uPSIyLjAiIHZpZXdCb3g9IjAgMCA0NCA1MSIgaGVpZ2h0PSI1MSIgd2lkdGg9IjQ0Ij4mI3hhOzx0aXRsZT5Hcm91cC5zdmc8L3RpdGxlPiYjeGE7PGRlc2M+Q3JlYXRlZCB1c2luZyBGaWdtYSAwLjkwPC9kZXNjPiYjeGE7PGcgdHJhbnNmb3JtPSJ0cmFuc2xhdGUoLTE2NDAgLTI0NTMpIiBpZD0iQ2FudmFzIj4mI3hhOzxnIHN0eWxlPSJtaXgtYmxlbmQtbW9kZTpub3JtYWw7IiBpZD0iR3JvdXAiPiYjeGE7PGcgc3R5bGU9Im1peC1ibGVuZC1tb2RlOm5vcm1hbDsiIGlkPSJHcm91cCI+JiN4YTs8ZyBzdHlsZT0ibWl4LWJsZW5kLW1vZGU6bm9ybWFsOyIgaWQ9Ikdyb3VwIj4mI3hhOzxnIHN0eWxlPSJtaXgtYmxlbmQtbW9kZTpub3JtYWw7IiBpZD0iZyI+JiN4YTs8ZyBzdHlsZT0ibWl4LWJsZW5kLW1vZGU6bm9ybWFsOyIgaWQ9InBhdGgiPiYjeGE7PGcgc3R5bGU9Im1peC1ibGVuZC1tb2RlOm5vcm1hbDsiIGlkPSJwYXRoOSBmaWxsIj4mI3hhOzx1c2Ugc3R5bGU9Im1peC1ibGVuZC1tb2RlOm5vcm1hbDsiIGZpbGw9IiM0RTRFNEUiIHRyYW5zZm9ybT0idHJhbnNsYXRlKDE2NDAuNTQgMjQ3NC4zNikiIHhsaW5rOmhyZWY9IiNwYXRoMF9maWxsIi8+JiN4YTs8L2c+JiN4YTs8L2c+JiN4YTs8ZyBzdHlsZT0ibWl4LWJsZW5kLW1vZGU6bm9ybWFsOyIgaWQ9InBhdGgiPiYjeGE7PGcgc3R5bGU9Im1peC1ibGVuZC1tb2RlOm5vcm1hbDsiIGlkPSJwYXRoMTAgZmlsbCI+JiN4YTs8dXNlIHN0eWxlPSJtaXgtYmxlbmQtbW9kZTpub3JtYWw7IiBmaWxsPSIjNEU0RTRFIiB0cmFuc2Zvcm09InRyYW5zbGF0ZSgxNjQ1LjY4IDI0NzQuMzcpIiB4bGluazpocmVmPSIjcGF0aDFfZmlsbCIvPiYjeGE7PC9nPiYjeGE7PC9nPiYjeGE7PGcgc3R5bGU9Im1peC1ibGVuZC1tb2RlOm5vcm1hbDsiIGlkPSJwYXRoIj4mI3hhOzxnIHN0eWxlPSJtaXgtYmxlbmQtbW9kZTpub3JtYWw7IiBpZD0icGF0aDExIGZpbGwiPiYjeGE7PHVzZSBzdHlsZT0ibWl4LWJsZW5kLW1vZGU6bm9ybWFsOyIgZmlsbD0iIzRFNEU0RSIgdHJhbnNmb3JtPSJ0cmFuc2xhdGUoMTY1My4zOSAyNDc0LjI2KSIgeGxpbms6aHJlZj0iI3BhdGgyX2ZpbGwiLz4mI3hhOzwvZz4mI3hhOzwvZz4mI3hhOzxnIHN0eWxlPSJtaXgtYmxlbmQtbW9kZTpub3JtYWw7IiBpZD0icGF0aCI+JiN4YTs8ZyBzdHlsZT0ibWl4LWJsZW5kLW1vZGU6bm9ybWFsOyIgaWQ9InBhdGgxMiBmaWxsIj4mI3hhOzx1c2Ugc3R5bGU9Im1peC1ibGVuZC1tb2RlOm5vcm1hbDsiIGZpbGw9IiM0RTRFNEUiIHRyYW5zZm9ybT0idHJhbnNsYXRlKDE2NjAuNDMgMjQ3NC4zOSkiIHhsaW5rOmhyZWY9IiNwYXRoM19maWxsIi8+JiN4YTs8L2c+JiN4YTs8L2c+JiN4YTs8ZyBzdHlsZT0ibWl4LWJsZW5kLW1vZGU6bm9ybWFsOyIgaWQ9InBhdGgiPiYjeGE7PGcgc3R5bGU9Im1peC1ibGVuZC1tb2RlOm5vcm1hbDsiIGlkPSJwYXRoMTMgZmlsbCI+JiN4YTs8dXNlIHN0eWxlPSJtaXgtYmxlbmQtbW9kZTpub3JtYWw7IiBmaWxsPSIjNEU0RTRFIiB0cmFuc2Zvcm09InRyYW5zbGF0ZSgxNjY3LjU1IDI0NzIuNTQpIiB4bGluazpocmVmPSIjcGF0aDRfZmlsbCIvPiYjeGE7PC9nPiYjeGE7PC9nPiYjeGE7PGcgc3R5bGU9Im1peC1ibGVuZC1tb2RlOm5vcm1hbDsiIGlkPSJwYXRoIj4mI3hhOzxnIHN0eWxlPSJtaXgtYmxlbmQtbW9kZTpub3JtYWw7IiBpZD0icGF0aDE0IGZpbGwiPiYjeGE7PHVzZSBzdHlsZT0ibWl4LWJsZW5kLW1vZGU6bm9ybWFsOyIgZmlsbD0iIzRFNEU0RSIgdHJhbnNmb3JtPSJ0cmFuc2xhdGUoMTY3Mi40NyAyNDc0LjI5KSIgeGxpbms6aHJlZj0iI3BhdGg1X2ZpbGwiLz4mI3hhOzwvZz4mI3hhOzwvZz4mI3hhOzxnIHN0eWxlPSJtaXgtYmxlbmQtbW9kZTpub3JtYWw7IiBpZD0icGF0aCI+JiN4YTs8ZyBzdHlsZT0ibWl4LWJsZW5kLW1vZGU6bm9ybWFsOyIgaWQ9InBhdGgxNSBmaWxsIj4mI3hhOzx1c2Ugc3R5bGU9Im1peC1ibGVuZC1tb2RlOm5vcm1hbDsiIGZpbGw9IiM0RTRFNEUiIHRyYW5zZm9ybT0idHJhbnNsYXRlKDE2NzkuOTggMjQ3NC4yNCkiIHhsaW5rOmhyZWY9IiNwYXRoNl9maWxsIi8+JiN4YTs8L2c+JiN4YTs8L2c+JiN4YTs8L2c+JiN4YTs8L2c+JiN4YTs8ZyBzdHlsZT0ibWl4LWJsZW5kLW1vZGU6bm9ybWFsOyIgaWQ9ImciPiYjeGE7PGcgc3R5bGU9Im1peC1ibGVuZC1tb2RlOm5vcm1hbDsiIGlkPSJwYXRoIj4mI3hhOzxnIHN0eWxlPSJtaXgtYmxlbmQtbW9kZTpub3JtYWw7IiBpZD0icGF0aDE2IGZpbGwiPiYjeGE7PHVzZSBzdHlsZT0ibWl4LWJsZW5kLW1vZGU6bm9ybWFsOyIgZmlsbD0iIzc2NzY3NyIgdHJhbnNmb3JtPSJ0cmFuc2xhdGUoMTY3My40OCAyNDUzLjY5KSIgeGxpbms6aHJlZj0iI3BhdGg3X2ZpbGwiLz4mI3hhOzwvZz4mI3hhOzwvZz4mI3hhOzxnIHN0eWxlPSJtaXgtYmxlbmQtbW9kZTpub3JtYWw7IiBpZD0icGF0aCI+JiN4YTs8ZyBzdHlsZT0ibWl4LWJsZW5kLW1vZGU6bm9ybWFsOyIgaWQ9InBhdGgxNyBmaWxsIj4mI3hhOzx1c2Ugc3R5bGU9Im1peC1ibGVuZC1tb2RlOm5vcm1hbDsiIGZpbGw9IiNGMzc3MjYiIHRyYW5zZm9ybT0idHJhbnNsYXRlKDE2NDMuMjEgMjQ4NC4yNykiIHhsaW5rOmhyZWY9IiNwYXRoOF9maWxsIi8+JiN4YTs8L2c+JiN4YTs8L2c+JiN4YTs8ZyBzdHlsZT0ibWl4LWJsZW5kLW1vZGU6bm9ybWFsOyIgaWQ9InBhdGgiPiYjeGE7PGcgc3R5bGU9Im1peC1ibGVuZC1tb2RlOm5vcm1hbDsiIGlkPSJwYXRoMTggZmlsbCI+JiN4YTs8dXNlIHN0eWxlPSJtaXgtYmxlbmQtbW9kZTpub3JtYWw7IiBmaWxsPSIjRjM3NzI2IiB0cmFuc2Zvcm09InRyYW5zbGF0ZSgxNjQzLjIxIDI0NTcuODgpIiB4bGluazpocmVmPSIjcGF0aDlfZmlsbCIvPiYjeGE7PC9nPiYjeGE7PC9nPiYjeGE7PGcgc3R5bGU9Im1peC1ibGVuZC1tb2RlOm5vcm1hbDsiIGlkPSJwYXRoIj4mI3hhOzxnIHN0eWxlPSJtaXgtYmxlbmQtbW9kZTpub3JtYWw7IiBpZD0icGF0aDE5IGZpbGwiPiYjeGE7PHVzZSBzdHlsZT0ibWl4LWJsZW5kLW1vZGU6bm9ybWFsOyIgZmlsbD0iIzlFOUU5RSIgdHJhbnNmb3JtPSJ0cmFuc2xhdGUoMTY0My4yOCAyNDk2LjA5KSIgeGxpbms6aHJlZj0iI3BhdGgxMF9maWxsIi8+JiN4YTs8L2c+JiN4YTs8L2c+JiN4YTs8ZyBzdHlsZT0ibWl4LWJsZW5kLW1vZGU6bm9ybWFsOyIgaWQ9InBhdGgiPiYjeGE7PGcgc3R5bGU9Im1peC1ibGVuZC1tb2RlOm5vcm1hbDsiIGlkPSJwYXRoMjAgZmlsbCI+JiN4YTs8dXNlIHN0eWxlPSJtaXgtYmxlbmQtbW9kZTpub3JtYWw7IiBmaWxsPSIjNjE2MjYyIiB0cmFuc2Zvcm09InRyYW5zbGF0ZSgxNjQxLjg3IDI0NTguNDMpIiB4bGluazpocmVmPSIjcGF0aDExX2ZpbGwiLz4mI3hhOzwvZz4mI3hhOzwvZz4mI3hhOzwvZz4mI3hhOzwvZz4mI3hhOzwvZz4mI3hhOzwvZz4mI3hhOzxkZWZzPiYjeGE7PHBhdGggZD0iTSAxLjc0NDk4IDUuNDc1MzNDIDEuNzQ0OTggNy4wMzMzNSAxLjYyMDM0IDcuNTQwODIgMS4yOTk4MyA3LjkxNDc0QyAwLjk0MzExOSA4LjIzNTk1IDAuNDgwMDI0IDguNDEzNTggMCA4LjQxMzMxTCAwLjEyNDY0MiA5LjMwMzZDIDAuODY4ODQgOS4zMTM2NiAxLjU5MDk1IDkuMDUwNzggMi4xNTQ1MiA4LjU2NDY2QyAyLjQ1Nzc1IDguMTk0ODcgMi42ODM0IDcuNzY3ODEgMi44MTggNy4zMDg5M0MgMi45NTI2MSA2Ljg1MDA1IDIuOTkzNDEgNi4zNjg3NiAyLjkzNzk4IDUuODkzNzdMIDIuOTM3OTggMEwgMS43NDQ5OCAwTCAxLjc0NDk4IDUuNDM5NzJMIDEuNzQ0OTggNS40NzUzM1oiIGlkPSJwYXRoMF9maWxsIi8+JiN4YTs8cGF0aCBkPSJNIDUuNTAyMDQgNC43NjMwOUMgNS41MDIwNCA1LjQzMDgxIDUuNTAyMDQgNi4wMjczMSA1LjU1NTQ1IDYuNTQzNjhMIDQuNDk2IDYuNTQzNjhMIDQuNDI0NzggNS40ODQyM0MgNC4yMDMxOCA1Ljg1OTA5IDMuODg2MjcgNi4xNjg1OCAzLjUwNjI4IDYuMzgxMjVDIDMuMTI2MjggNi41OTM5MiAyLjY5Njc1IDYuNzAyMTkgMi4yNjEzNSA2LjY5NTAzQyAxLjIyODYxIDYuNjk1MDMgMCA2LjEzNDE1IDAgMy44NDYwOEwgMCAwLjA0NDUxNDlMIDEuMTkzIDAuMDQ0NTE0OUwgMS4xOTMgMy42MDU3QyAxLjE5MyA0Ljg0MzIyIDEuNTc1ODMgNS42NzExOSAyLjY1MzA5IDUuNjcxMTlDIDIuODc0NzIgNS42NzM1OCAzLjA5NDU5IDUuNjMxNjggMy4yOTk4MiA1LjU0Nzk2QyAzLjUwNTA1IDUuNDY0MjQgMy42OTE0OSA1LjM0MDM5IDMuODQ4MjIgNS4xODM2NkMgNC4wMDQ5NCA1LjAyNjk0IDQuMTI4OCA0Ljg0MDQ5IDQuMjEyNTIgNC42MzUyN0MgNC4yOTYyMyA0LjQzMDA0IDQuMzM4MTMgNC4yMTAxNiA0LjMzNTc1IDMuOTg4NTNMIDQuMzM1NzUgMEwgNS41Mjg3NCAwTCA1LjUyODc0IDQuNzI3NDhMIDUuNTAyMDQgNC43NjMwOVoiIGlkPSJwYXRoMV9maWxsIi8+JiN4YTs8cGF0aCBkPSJNIDAuMDUzNDE3OCAyLjI3MjY0QyAwLjA1MzQxNzggMS40NDQ2NiAwLjA1MzQxNzggMC43NjgwMzYgMCAwLjE1MzczMUwgMS4wNjgzNiAwLjE1MzczMUwgMS4xMjE3NyAxLjI2NjZDIDEuMzU5OCAwLjg2NDUzNSAxLjcwMjQ3IDAuNTM0NTk0IDIuMTEzMjUgMC4zMTE5NTRDIDIuNTI0MDQgMC4wODkzMTQ1IDIuOTg3NTQgLTAuMDE3Njc4NiAzLjQ1NDM1IDAuMDAyMzgwOTVDIDUuMDM5MDggMC4wMDIzODA5NSA2LjIzMjA4IDEuMzI4OTIgNi4yMzIwOCAzLjMwNTM4QyA2LjIzMjA4IDUuNjM3OTYgNC43OTg3IDYuNzk1MzUgMy4yNDk1OCA2Ljc5NTM1QyAyLjg1MzA5IDYuODEzMDQgMi40NTg3NCA2LjcyODEgMi4xMDQ2OSA2LjU0ODc0QyAxLjc1MDY0IDYuMzY5MzcgMS40NDg4OCA2LjEwMTY2IDEuMjI4NjEgNS43NzE1MUwgMS4yMjg2MSA1Ljc3MTUxTCAxLjIyODYxIDkuMzMyNjlMIDAuMDUzNDE3OCA5LjMzMjY5TCAwLjA1MzQxNzggMi4yOTkzNUwgMC4wNTM0MTc4IDIuMjcyNjRaTSAxLjIyODYxIDQuMDA4NzJDIDEuMjMxODQgNC4xNzAyNiAxLjI0OTcyIDQuMzMxMTcgMS4yODIwMyA0LjQ4OTQ4QyAxLjM4MzA0IDQuODg0NzkgMS42MTI5OSA1LjIzNTEzIDEuOTM1NDggNS40ODUwNkMgMi4yNTc5OCA1LjczNSAyLjY1NDYxIDUuODcwMjYgMy4wNjI2MiA1Ljg2OTQ0QyA0LjMxNzk0IDUuODY5NDQgNS4wNTY4OSA0Ljg0NTYgNS4wNTY4OSAzLjM1ODhDIDUuMDU2ODkgMi4wNTg5NyA0LjM2MjQ2IDAuOTQ2MDk2IDMuMTA3MTQgMC45NDYwOTZDIDIuNjEwMzYgMC45ODY3NzcgMi4xNDU0OCAxLjIwNzI2IDEuNzk5NjUgMS41NjYyQyAxLjQ1MzgyIDEuOTI1MTQgMS4yNTA3OSAyLjM5NzkgMS4yMjg2MSAyLjg5NTg1TCAxLjIyODYxIDQuMDA4NzJaIiBpZD0icGF0aDJfZmlsbCIvPiYjeGE7PHBhdGggZD0iTSAxLjMxNzY0IDAuMDE3ODA1OUwgMi43NTEwMiAzLjg1NDk5QyAyLjkwMjM3IDQuMjgyMzMgMy4wNjI2MiA0Ljc5ODcgMy4xNjk0NiA1LjE4MTUzQyAzLjI5NDEgNC43ODk4IDMuNDI3NjQgNC4yOTEyMyAzLjU4NzkgMy44MjgyOEwgNC44ODc3MyAwLjAxNzgwNTlMIDYuMTQzMDUgMC4wMTc4MDU5TCA0LjM2MjQ2IDQuNjQ3MzVDIDMuNDcyMTYgNi44NzMwOSAyLjkyOTA4IDguMDIxNTggMi4xMSA4LjcxNjAxQyAxLjY5NzQ1IDkuMDkyODMgMS4xOTQ0OCA5LjM1NjU4IDAuNjQ5OTE3IDkuNDgxNjZMIDAuMzU2MTE5IDguNDg0NTNDIDAuNzM2ODg2IDguMzU5NDIgMS4wOTAzOCA4LjE2MzA0IDEuMzk3NzcgNy45MDU4NEMgMS44MzIxIDcuNTUxODggMi4xNzY3OCA3LjEwMDQ0IDIuNDAzOCA2LjU4ODJDIDIuNDUyMzkgNi40OTk0OSAyLjQ4NTUxIDYuNDAzMTQgMi41MDE3MyA2LjMwMzNDIDIuNDkxNjEgNi4xOTU4NiAyLjQ2NDU3IDYuMDkwNyAyLjQyMTYxIDUuOTkxN0wgMCAwTCAxLjI5OTgzIDBMIDEuMzE3NjQgMC4wMTc4MDU5WiIgaWQ9InBhdGgzX2ZpbGwiLz4mI3hhOzxwYXRoIGQ9Ik0gMi4xOTAxMyAwTCAyLjE5MDEzIDEuODY5NjJMIDMuODk5NSAxLjg2OTYyTCAzLjg5OTUgMi43NTk5MkwgMi4xOTAxMyAyLjc1OTkyTCAyLjE5MDEzIDYuMjY3NjlDIDIuMTkwMTMgNy4wNjg5NiAyLjQyMTYxIDcuNTMxOTEgMy4wODA0MyA3LjUzMTkxQyAzLjMxNDQyIDcuNTM1NzQgMy41NDc4OSA3LjUwODggMy43NzQ4NiA3LjQ1MTc5TCAzLjgyODI4IDguMzQyMDhDIDMuNDg3OTQgOC40NTk5OSAzLjEyODgxIDguNTE0MzEgMi43Njg4MiA4LjUwMjM0QyAyLjUzMDQyIDguNTE3MjYgMi4yOTE2MSA4LjQ4MDQzIDIuMDY4NzggOC4zOTQzN0MgMS44NDU5NSA4LjMwODMxIDEuNjQ0MzggOC4xNzUwNiAxLjQ3Nzg5IDguMDAzNzdDIDEuMTE1MjUgNy41MTg3MyAwLjk0OTgyNiA2LjkxNDMxIDEuMDE0OTQgNi4zMTIyMUwgMS4wMTQ5NCAyLjc1MTAyTCAwIDIuNzUxMDJMIDAgMS44NjA3MkwgMS4wMzI3NCAxLjg2MDcyTCAxLjAzMjc0IDAuMjc1OTkyTCAyLjE5MDEzIDBaIiBpZD0icGF0aDRfZmlsbCIvPiYjeGE7PHBhdGggZD0iTSAxLjE3NzE2IDMuNTc4OTlDIDEuMTUzIDMuODgwOTMgMS4xOTQ2OCA0LjE4NDUxIDEuMjk5MzMgNC40Njg3NkMgMS40MDM5OCA0Ljc1MzAxIDEuNTY5MSA1LjAxMTE0IDEuNzgzMjkgNS4yMjUzMkMgMS45OTc0NyA1LjQzOTUxIDIuMjU1NiA1LjYwNDYzIDIuNTM5ODUgNS43MDkyOEMgMi44MjQxIDUuODEzOTMgMy4xMjc2OCA1Ljg1NTYxIDMuNDI5NjIgNS44MzE0NUMgNC4wNDAzMyA1Ljg0NTExIDQuNjQ3MDYgNS43Mjk4MyA1LjIxMDIxIDUuNDkzMTNMIDUuNDE0OTggNi4zODM0M0MgNC43MjM5MyA2LjY2ODA5IDMuOTgwODUgNi44MDQ1OCAzLjIzMzc1IDYuNzg0MDZDIDIuNzk4MjEgNi44MTM4OCAyLjM2MTM4IDYuNzQ5MTQgMS45NTMyMiA2LjU5NDI3QyAxLjU0NTA1IDYuNDM5NDEgMS4xNzUyMiA2LjE5ODA5IDAuODY5MDcxIDUuODg2ODhDIDAuNTYyOTI4IDUuNTc1NjYgMC4zMjc3MjMgNS4yMDE5IDAuMTc5NTkxIDQuNzkxMjVDIDAuMDMxNDU4NCA0LjM4MDU5IC0wLjAyNjA5NjIgMy45NDI3NiAwLjAxMDg3NDggMy41MDc3N0MgMC4wMTA4NzQ4IDEuNTQ5MTIgMS4xNzcxNiAwIDMuMDgyNCAwQyA1LjIxOTExIDAgNS43NTMyOSAxLjg2OTYyIDUuNzUzMjkgMy4wNjI2MkMgNS43NjQ3MSAzLjI0NjQ0IDUuNzY0NzEgMy40MzA3OSA1Ljc1MzI5IDMuNjE0NjFMIDEuMTUwNDYgMy42MTQ2MUwgMS4xNzcxNiAzLjU3ODk5Wk0gNC42NjcxMyAyLjY4ODdDIDQuNzAxNDkgMi40NTA2NyA0LjY4NDQzIDIuMjA4MDUgNC42MTcwOSAxLjk3NzE4QyA0LjU0OTc2IDEuNzQ2MzEgNC40MzM3MiAxLjUzMjU1IDQuMjc2OCAxLjM1MDMxQyA0LjExOTg3IDEuMTY4MDggMy45MjU3MSAxLjAyMTYgMy43MDczOSAwLjkyMDc0NEMgMy40ODkwNyAwLjgxOTg5IDMuMjUxNjYgMC43NjcwMDYgMy4wMTExOCAwLjc2NTY1NkMgMi41MjIwMSAwLjgwMTA2NCAyLjA2MzcxIDEuMDE3ODggMS43MjYwOSAxLjM3MzYyQyAxLjM4ODQ3IDEuNzI5MzUgMS4xOTU4OCAyLjE5ODM1IDEuMTg2MDcgMi42ODg3TCA0LjY2NzEzIDIuNjg4N1oiIGlkPSJwYXRoNV9maWxsIi8+JiN4YTs8cGF0aCBkPSJNIDAuMDUzNDE3OCAyLjE5MjI4QyAwLjA1MzQxNzggMS40MjY2MyAwLjA1MzQxNzggMC43Njc4MDYgMCAwLjE2MjQwNEwgMS4wNjgzNiAwLjE2MjQwNEwgMS4wNjgzNiAxLjQzNTUzTCAxLjEyMTc3IDEuNDM1NTNDIDEuMjMzOTEgMS4wNDI1OSAxLjQ2NTYgMC42OTQzMTQgMS43ODQ2OCAwLjQzOTA0OUMgMi4xMDM3NiAwLjE4Mzc4MyAyLjQ5NDQgMC4wMzQxOTYgMi45MDIzNyAwLjAxMTA1MzhDIDMuMDE0NjYgLTAuMDAzNjg0NTkgMy4xMjgzOSAtMC4wMDM2ODQ1OSAzLjI0MDY4IDAuMDExMDUzOEwgMy4yNDA2OCAxLjEyMzkzQyAzLjEwNDYyIDEuMTA4MTcgMi45NjcyIDEuMTA4MTcgMi44MzExNCAxLjEyMzkzQyAyLjQyNyAxLjEzOTU4IDIuMDQyMzcgMS4zMDE4MiAxLjc0OTEgMS41ODAzNUMgMS40NTU4MyAxLjg1ODg3IDEuMjczOTggMi4yMzQ2MiAxLjIzNzUxIDIuNjM3NDNDIDEuMjA0MjIgMi44MTk2IDEuMTg2MzUgMy4wMDQyNSAxLjE4NDEgMy4xODk0MUwgMS4xODQxIDYuNjUyNjdMIDAuMDA4OTAyOTcgNi42NTI2N0wgMC4wMDg5MDI5NyAyLjIwMTE4TCAwLjA1MzQxNzggMi4xOTIyOFoiIGlkPSJwYXRoNl9maWxsIi8+JiN4YTs8cGF0aCBkPSJNIDYuMDMwNTkgMi44MzU2NUMgNi4wNjcxNSAzLjQzMzc2IDUuOTI0ODUgNC4wMjkyMSA1LjYyMTggNC41NDYxNUMgNS4zMTg3NSA1LjA2MzEgNC44Njg2OSA1LjQ3ODEzIDQuMzI4OTMgNS43MzgzOUMgMy43ODkxNyA1Ljk5ODY0IDMuMTg0MTYgNi4wOTIzMyAyLjU5MDk3IDYuMDA3NTNDIDEuOTk3NzggNS45MjI3MiAxLjQ0MzI2IDUuNjYzMjYgMC45OTgwNDggNS4yNjIxOUMgMC41NTI4MzcgNC44NjExMyAwLjIzNzA5IDQuMzM2NjEgMC4wOTEwMzA3IDMuNzU1NDZDIC0wLjA1NTAyODcgMy4xNzQzMSAtMC4wMjQ3ODkxIDIuNTYyODMgMC4xNzc4OTcgMS45OTg5M0MgMC4zODA1ODMgMS40MzUwMyAwLjc0NjU0MSAwLjk0NDIyMSAxLjIyOTE1IDAuNTg5MDM3QyAxLjcxMTc2IDAuMjMzODUzIDIuMjg5MTggMC4wMzAzNjg2IDIuODg3ODQgMC4wMDQ1MDU0M0MgMy4yODAzNSAtMC4wMTcwOTMyIDMuNjczMjYgMC4wMzkxMTQ0IDQuMDQzOTYgMC4xNjk4OTZDIDQuNDE0NjcgMC4zMDA2NzcgNC43NTU4NyAwLjUwMzQ1MyA1LjA0Nzk0IDAuNzY2NTYxQyA1LjM0IDEuMDI5NjcgNS41NzcxOCAxLjM0NzkyIDUuNzQ1ODIgMS43MDMwMUMgNS45MTQ0NiAyLjA1ODEgNi4wMTEyNCAyLjQ0MzAzIDYuMDMwNTkgMi44MzU2NUwgNi4wMzA1OSAyLjgzNTY1WiIgaWQ9InBhdGg3X2ZpbGwiLz4mI3hhOzxwYXRoIGQ9Ik0gMTguNjk2MiA3LjEyMjM4QyAxMC42ODM2IDcuMTIyMzggMy42NDEzMSA0LjI0NjcyIDAgMEMgMS40MTI4NCAzLjgyMDQxIDMuOTYyMTUgNy4xMTYzIDcuMzA0NzkgOS40NDQwNEMgMTAuNjQ3NCAxMS43NzE4IDE0LjYyMyAxMy4wMTk2IDE4LjY5NjIgMTMuMDE5NkMgMjIuNzY5NSAxMy4wMTk2IDI2Ljc0NSAxMS43NzE4IDMwLjA4NzcgOS40NDQwNEMgMzMuNDMwMyA3LjExNjMgMzUuOTc5NiAzLjgyMDQxIDM3LjM5MjUgNC4wNDg2ZS0xM0MgMzMuNzYwMSA0LjI0NjcyIDI2Ljc0NDUgNy4xMjIzOCAxOC42OTYyIDcuMTIyMzhaIiBpZD0icGF0aDhfZmlsbCIvPiYjeGE7PHBhdGggZD0iTSAxOC42OTYyIDUuODk3MjVDIDI2LjcwODkgNS44OTcyNSAzMy43NTEyIDguNzcyOTEgMzcuMzkyNSAxMy4wMTk2QyAzNS45Nzk2IDkuMTk5MjIgMzMuNDMwMyA1LjkwMzMzIDMwLjA4NzcgMy41NzU1OUMgMjYuNzQ1IDEuMjQ3ODUgMjIuNzY5NSA0LjA0ODZlLTEzIDE4LjY5NjIgMEMgMTQuNjIzIDQuMDQ4NmUtMTMgMTAuNjQ3NCAxLjI0Nzg1IDcuMzA0NzkgMy41NzU1OUMgMy45NjIxNSA1LjkwMzMzIDEuNDEyODQgOS4xOTkyMiAwIDEzLjAxOTZDIDMuNjQxMzEgOC43NjQwMSAxMC42NDggNS44OTcyNSAxOC42OTYyIDUuODk3MjVaIiBpZD0icGF0aDlfZmlsbCIvPiYjeGE7PHBhdGggZD0iTSA3LjU5NTc2IDMuNTY2NTZDIDcuNjQyNzYgNC4zMTk5MiA3LjQ2NDQyIDUuMDcwMjIgNy4wODM0NyA1LjcyMTg2QyA2LjcwMjUxIDYuMzczNSA2LjEzNjE5IDYuODk2OTggNS40NTY2NiA3LjIyNTYxQyA0Ljc3NzEzIDcuNTU0MjQgNC4wMTUxNSA3LjY3MzE0IDMuMjY3ODEgNy41NjcxNkMgMi41MjA0NiA3LjQ2MTE3IDEuODIxNTggNy4xMzUxMSAxLjI2MDIxIDYuNjMwNTFDIDAuNjk4ODM5IDYuMTI1OTEgMC4zMDAzOTQgNS40NjU2MSAwLjExNTYzNyA0LjczMzc1QyAtMC4wNjkxMTkxIDQuMDAxODggLTAuMDMxODIxOSAzLjIzMTU5IDAuMjIyNzc3IDIuNTIwOTlDIDAuNDc3Mzc2IDEuODEwNCAwLjkzNzc1IDEuMTkxNjkgMS41NDUyNCAwLjc0MzY4NUMgMi4xNTI3NCAwLjI5NTY3OCAyLjg3OTg1IDAuMDM4NjU5NSAzLjYzMzk0IDAuMDA1Mzc1ODlDIDQuMTI3OTMgLTAuMDIxMDQ3MSA0LjYyMjI5IDAuMDUwMTE3MyA1LjA4ODc4IDAuMjE0ODAzQyA1LjU1NTI2IDAuMzc5NDkgNS45ODQ3MyAwLjYzNDQ3IDYuMzUyNjQgMC45NjUxNzlDIDYuNzIwNTUgMS4yOTU4OSA3LjAxOTcxIDEuNjk1ODQgNy4yMzMgMi4xNDIyQyA3LjQ0NjMgMi41ODg1NSA3LjU2OTU3IDMuMDcyNTYgNy41OTU3NiAzLjU2NjU2TCA3LjU5NTc2IDMuNTY2NTZaIiBpZD0icGF0aDEwX2ZpbGwiLz4mI3hhOzxwYXRoIGQ9Ik0gMi4yNTA2MSA0LjM3OTQzQyAxLjgxODg2IDQuMzkxMzUgMS4zOTMyMiA0LjI3NTM1IDEuMDI3MjIgNC4wNDYwMkMgMC42NjEyMjQgMy44MTY2OCAwLjM3MTIwNiAzLjQ4NDI0IDAuMTkzNjQxIDMuMDkwNTJDIDAuMDE2MDc2MiAyLjY5Njc5IC0wLjA0MTEwNzggMi4yNTkzNSAwLjAyOTI4MDQgMS44MzMyMUMgMC4wOTk2Njg2IDEuNDA3MDcgMC4yOTQ0ODYgMS4wMTEyNSAwLjU4OTIzMyAwLjY5NTU0MkMgMC44ODM5ODEgMC4zNzk4MyAxLjI2NTUgMC4xNTgzMTYgMS42ODU4MSAwLjA1ODg1NzdDIDIuMTA2MTEgLTAuMDQwNjAwNSAyLjU0NjQ0IC0wLjAxMzU2MjIgMi45NTE0MyAwLjEzNjU3MkMgMy4zNTY0MSAwLjI4NjcwNyAzLjcwNzk2IDAuNTUzMjM0IDMuOTYxODYgMC45MDI2MzZDIDQuMjE1NzcgMS4yNTIwNCA0LjM2MDcgMS42Njg3MiA0LjM3ODQyIDIuMTAwMjdDIDQuMzk1MjkgMi42ODM4IDQuMTgxMzEgMy4yNTA0NCAzLjc4MjkzIDMuNjc3MTVDIDMuMzg0NTUgNC4xMDM4NyAyLjgzMzkyIDQuMzU2MjMgMi4yNTA2MSA0LjM3OTQzWiIgaWQ9InBhdGgxMV9maWxsIi8+JiN4YTs8L2RlZnM+JiN4YTs8L3N2Zz4=;" vertex="1" parent="1">
          <mxGeometry x="640" y="324.72" width="35" height="40.57" as="geometry" />
        </mxCell>
        <mxCell id="NeGIg2A49nrBojpMStaA-33" style="edgeStyle=orthogonalEdgeStyle;rounded=0;orthogonalLoop=1;jettySize=auto;html=1;" edge="1" parent="1" source="NeGIg2A49nrBojpMStaA-13" target="NeGIg2A49nrBojpMStaA-2">
          <mxGeometry relative="1" as="geometry" />
        </mxCell>
        <mxCell id="NeGIg2A49nrBojpMStaA-13" value="" style="shape=image;verticalLabelPosition=bottom;labelBackgroundColor=default;verticalAlign=top;aspect=fixed;imageAspect=0;image=data:image/svg+xml,PHN2ZyB4bWxuczp4bGluaz0iaHR0cDovL3d3dy53My5vcmcvMTk5OS94bGluayIgeG1sbnM9Imh0dHA6Ly93d3cudzMub3JnLzIwMDAvc3ZnIiB2ZXJzaW9uPSIyLjAiIHZpZXdCb3g9IjAgMCA0NCA1MSIgaGVpZ2h0PSI1MSIgd2lkdGg9IjQ0Ij4mI3hhOzx0aXRsZT5Hcm91cC5zdmc8L3RpdGxlPiYjeGE7PGRlc2M+Q3JlYXRlZCB1c2luZyBGaWdtYSAwLjkwPC9kZXNjPiYjeGE7PGcgdHJhbnNmb3JtPSJ0cmFuc2xhdGUoLTE2NDAgLTI0NTMpIiBpZD0iQ2FudmFzIj4mI3hhOzxnIHN0eWxlPSJtaXgtYmxlbmQtbW9kZTpub3JtYWw7IiBpZD0iR3JvdXAiPiYjeGE7PGcgc3R5bGU9Im1peC1ibGVuZC1tb2RlOm5vcm1hbDsiIGlkPSJHcm91cCI+JiN4YTs8ZyBzdHlsZT0ibWl4LWJsZW5kLW1vZGU6bm9ybWFsOyIgaWQ9Ikdyb3VwIj4mI3hhOzxnIHN0eWxlPSJtaXgtYmxlbmQtbW9kZTpub3JtYWw7IiBpZD0iZyI+JiN4YTs8ZyBzdHlsZT0ibWl4LWJsZW5kLW1vZGU6bm9ybWFsOyIgaWQ9InBhdGgiPiYjeGE7PGcgc3R5bGU9Im1peC1ibGVuZC1tb2RlOm5vcm1hbDsiIGlkPSJwYXRoOSBmaWxsIj4mI3hhOzx1c2Ugc3R5bGU9Im1peC1ibGVuZC1tb2RlOm5vcm1hbDsiIGZpbGw9IiM0RTRFNEUiIHRyYW5zZm9ybT0idHJhbnNsYXRlKDE2NDAuNTQgMjQ3NC4zNikiIHhsaW5rOmhyZWY9IiNwYXRoMF9maWxsIi8+JiN4YTs8L2c+JiN4YTs8L2c+JiN4YTs8ZyBzdHlsZT0ibWl4LWJsZW5kLW1vZGU6bm9ybWFsOyIgaWQ9InBhdGgiPiYjeGE7PGcgc3R5bGU9Im1peC1ibGVuZC1tb2RlOm5vcm1hbDsiIGlkPSJwYXRoMTAgZmlsbCI+JiN4YTs8dXNlIHN0eWxlPSJtaXgtYmxlbmQtbW9kZTpub3JtYWw7IiBmaWxsPSIjNEU0RTRFIiB0cmFuc2Zvcm09InRyYW5zbGF0ZSgxNjQ1LjY4IDI0NzQuMzcpIiB4bGluazpocmVmPSIjcGF0aDFfZmlsbCIvPiYjeGE7PC9nPiYjeGE7PC9nPiYjeGE7PGcgc3R5bGU9Im1peC1ibGVuZC1tb2RlOm5vcm1hbDsiIGlkPSJwYXRoIj4mI3hhOzxnIHN0eWxlPSJtaXgtYmxlbmQtbW9kZTpub3JtYWw7IiBpZD0icGF0aDExIGZpbGwiPiYjeGE7PHVzZSBzdHlsZT0ibWl4LWJsZW5kLW1vZGU6bm9ybWFsOyIgZmlsbD0iIzRFNEU0RSIgdHJhbnNmb3JtPSJ0cmFuc2xhdGUoMTY1My4zOSAyNDc0LjI2KSIgeGxpbms6aHJlZj0iI3BhdGgyX2ZpbGwiLz4mI3hhOzwvZz4mI3hhOzwvZz4mI3hhOzxnIHN0eWxlPSJtaXgtYmxlbmQtbW9kZTpub3JtYWw7IiBpZD0icGF0aCI+JiN4YTs8ZyBzdHlsZT0ibWl4LWJsZW5kLW1vZGU6bm9ybWFsOyIgaWQ9InBhdGgxMiBmaWxsIj4mI3hhOzx1c2Ugc3R5bGU9Im1peC1ibGVuZC1tb2RlOm5vcm1hbDsiIGZpbGw9IiM0RTRFNEUiIHRyYW5zZm9ybT0idHJhbnNsYXRlKDE2NjAuNDMgMjQ3NC4zOSkiIHhsaW5rOmhyZWY9IiNwYXRoM19maWxsIi8+JiN4YTs8L2c+JiN4YTs8L2c+JiN4YTs8ZyBzdHlsZT0ibWl4LWJsZW5kLW1vZGU6bm9ybWFsOyIgaWQ9InBhdGgiPiYjeGE7PGcgc3R5bGU9Im1peC1ibGVuZC1tb2RlOm5vcm1hbDsiIGlkPSJwYXRoMTMgZmlsbCI+JiN4YTs8dXNlIHN0eWxlPSJtaXgtYmxlbmQtbW9kZTpub3JtYWw7IiBmaWxsPSIjNEU0RTRFIiB0cmFuc2Zvcm09InRyYW5zbGF0ZSgxNjY3LjU1IDI0NzIuNTQpIiB4bGluazpocmVmPSIjcGF0aDRfZmlsbCIvPiYjeGE7PC9nPiYjeGE7PC9nPiYjeGE7PGcgc3R5bGU9Im1peC1ibGVuZC1tb2RlOm5vcm1hbDsiIGlkPSJwYXRoIj4mI3hhOzxnIHN0eWxlPSJtaXgtYmxlbmQtbW9kZTpub3JtYWw7IiBpZD0icGF0aDE0IGZpbGwiPiYjeGE7PHVzZSBzdHlsZT0ibWl4LWJsZW5kLW1vZGU6bm9ybWFsOyIgZmlsbD0iIzRFNEU0RSIgdHJhbnNmb3JtPSJ0cmFuc2xhdGUoMTY3Mi40NyAyNDc0LjI5KSIgeGxpbms6aHJlZj0iI3BhdGg1X2ZpbGwiLz4mI3hhOzwvZz4mI3hhOzwvZz4mI3hhOzxnIHN0eWxlPSJtaXgtYmxlbmQtbW9kZTpub3JtYWw7IiBpZD0icGF0aCI+JiN4YTs8ZyBzdHlsZT0ibWl4LWJsZW5kLW1vZGU6bm9ybWFsOyIgaWQ9InBhdGgxNSBmaWxsIj4mI3hhOzx1c2Ugc3R5bGU9Im1peC1ibGVuZC1tb2RlOm5vcm1hbDsiIGZpbGw9IiM0RTRFNEUiIHRyYW5zZm9ybT0idHJhbnNsYXRlKDE2NzkuOTggMjQ3NC4yNCkiIHhsaW5rOmhyZWY9IiNwYXRoNl9maWxsIi8+JiN4YTs8L2c+JiN4YTs8L2c+JiN4YTs8L2c+JiN4YTs8L2c+JiN4YTs8ZyBzdHlsZT0ibWl4LWJsZW5kLW1vZGU6bm9ybWFsOyIgaWQ9ImciPiYjeGE7PGcgc3R5bGU9Im1peC1ibGVuZC1tb2RlOm5vcm1hbDsiIGlkPSJwYXRoIj4mI3hhOzxnIHN0eWxlPSJtaXgtYmxlbmQtbW9kZTpub3JtYWw7IiBpZD0icGF0aDE2IGZpbGwiPiYjeGE7PHVzZSBzdHlsZT0ibWl4LWJsZW5kLW1vZGU6bm9ybWFsOyIgZmlsbD0iIzc2NzY3NyIgdHJhbnNmb3JtPSJ0cmFuc2xhdGUoMTY3My40OCAyNDUzLjY5KSIgeGxpbms6aHJlZj0iI3BhdGg3X2ZpbGwiLz4mI3hhOzwvZz4mI3hhOzwvZz4mI3hhOzxnIHN0eWxlPSJtaXgtYmxlbmQtbW9kZTpub3JtYWw7IiBpZD0icGF0aCI+JiN4YTs8ZyBzdHlsZT0ibWl4LWJsZW5kLW1vZGU6bm9ybWFsOyIgaWQ9InBhdGgxNyBmaWxsIj4mI3hhOzx1c2Ugc3R5bGU9Im1peC1ibGVuZC1tb2RlOm5vcm1hbDsiIGZpbGw9IiNGMzc3MjYiIHRyYW5zZm9ybT0idHJhbnNsYXRlKDE2NDMuMjEgMjQ4NC4yNykiIHhsaW5rOmhyZWY9IiNwYXRoOF9maWxsIi8+JiN4YTs8L2c+JiN4YTs8L2c+JiN4YTs8ZyBzdHlsZT0ibWl4LWJsZW5kLW1vZGU6bm9ybWFsOyIgaWQ9InBhdGgiPiYjeGE7PGcgc3R5bGU9Im1peC1ibGVuZC1tb2RlOm5vcm1hbDsiIGlkPSJwYXRoMTggZmlsbCI+JiN4YTs8dXNlIHN0eWxlPSJtaXgtYmxlbmQtbW9kZTpub3JtYWw7IiBmaWxsPSIjRjM3NzI2IiB0cmFuc2Zvcm09InRyYW5zbGF0ZSgxNjQzLjIxIDI0NTcuODgpIiB4bGluazpocmVmPSIjcGF0aDlfZmlsbCIvPiYjeGE7PC9nPiYjeGE7PC9nPiYjeGE7PGcgc3R5bGU9Im1peC1ibGVuZC1tb2RlOm5vcm1hbDsiIGlkPSJwYXRoIj4mI3hhOzxnIHN0eWxlPSJtaXgtYmxlbmQtbW9kZTpub3JtYWw7IiBpZD0icGF0aDE5IGZpbGwiPiYjeGE7PHVzZSBzdHlsZT0ibWl4LWJsZW5kLW1vZGU6bm9ybWFsOyIgZmlsbD0iIzlFOUU5RSIgdHJhbnNmb3JtPSJ0cmFuc2xhdGUoMTY0My4yOCAyNDk2LjA5KSIgeGxpbms6aHJlZj0iI3BhdGgxMF9maWxsIi8+JiN4YTs8L2c+JiN4YTs8L2c+JiN4YTs8ZyBzdHlsZT0ibWl4LWJsZW5kLW1vZGU6bm9ybWFsOyIgaWQ9InBhdGgiPiYjeGE7PGcgc3R5bGU9Im1peC1ibGVuZC1tb2RlOm5vcm1hbDsiIGlkPSJwYXRoMjAgZmlsbCI+JiN4YTs8dXNlIHN0eWxlPSJtaXgtYmxlbmQtbW9kZTpub3JtYWw7IiBmaWxsPSIjNjE2MjYyIiB0cmFuc2Zvcm09InRyYW5zbGF0ZSgxNjQxLjg3IDI0NTguNDMpIiB4bGluazpocmVmPSIjcGF0aDExX2ZpbGwiLz4mI3hhOzwvZz4mI3hhOzwvZz4mI3hhOzwvZz4mI3hhOzwvZz4mI3hhOzwvZz4mI3hhOzwvZz4mI3hhOzxkZWZzPiYjeGE7PHBhdGggZD0iTSAxLjc0NDk4IDUuNDc1MzNDIDEuNzQ0OTggNy4wMzMzNSAxLjYyMDM0IDcuNTQwODIgMS4yOTk4MyA3LjkxNDc0QyAwLjk0MzExOSA4LjIzNTk1IDAuNDgwMDI0IDguNDEzNTggMCA4LjQxMzMxTCAwLjEyNDY0MiA5LjMwMzZDIDAuODY4ODQgOS4zMTM2NiAxLjU5MDk1IDkuMDUwNzggMi4xNTQ1MiA4LjU2NDY2QyAyLjQ1Nzc1IDguMTk0ODcgMi42ODM0IDcuNzY3ODEgMi44MTggNy4zMDg5M0MgMi45NTI2MSA2Ljg1MDA1IDIuOTkzNDEgNi4zNjg3NiAyLjkzNzk4IDUuODkzNzdMIDIuOTM3OTggMEwgMS43NDQ5OCAwTCAxLjc0NDk4IDUuNDM5NzJMIDEuNzQ0OTggNS40NzUzM1oiIGlkPSJwYXRoMF9maWxsIi8+JiN4YTs8cGF0aCBkPSJNIDUuNTAyMDQgNC43NjMwOUMgNS41MDIwNCA1LjQzMDgxIDUuNTAyMDQgNi4wMjczMSA1LjU1NTQ1IDYuNTQzNjhMIDQuNDk2IDYuNTQzNjhMIDQuNDI0NzggNS40ODQyM0MgNC4yMDMxOCA1Ljg1OTA5IDMuODg2MjcgNi4xNjg1OCAzLjUwNjI4IDYuMzgxMjVDIDMuMTI2MjggNi41OTM5MiAyLjY5Njc1IDYuNzAyMTkgMi4yNjEzNSA2LjY5NTAzQyAxLjIyODYxIDYuNjk1MDMgMCA2LjEzNDE1IDAgMy44NDYwOEwgMCAwLjA0NDUxNDlMIDEuMTkzIDAuMDQ0NTE0OUwgMS4xOTMgMy42MDU3QyAxLjE5MyA0Ljg0MzIyIDEuNTc1ODMgNS42NzExOSAyLjY1MzA5IDUuNjcxMTlDIDIuODc0NzIgNS42NzM1OCAzLjA5NDU5IDUuNjMxNjggMy4yOTk4MiA1LjU0Nzk2QyAzLjUwNTA1IDUuNDY0MjQgMy42OTE0OSA1LjM0MDM5IDMuODQ4MjIgNS4xODM2NkMgNC4wMDQ5NCA1LjAyNjk0IDQuMTI4OCA0Ljg0MDQ5IDQuMjEyNTIgNC42MzUyN0MgNC4yOTYyMyA0LjQzMDA0IDQuMzM4MTMgNC4yMTAxNiA0LjMzNTc1IDMuOTg4NTNMIDQuMzM1NzUgMEwgNS41Mjg3NCAwTCA1LjUyODc0IDQuNzI3NDhMIDUuNTAyMDQgNC43NjMwOVoiIGlkPSJwYXRoMV9maWxsIi8+JiN4YTs8cGF0aCBkPSJNIDAuMDUzNDE3OCAyLjI3MjY0QyAwLjA1MzQxNzggMS40NDQ2NiAwLjA1MzQxNzggMC43NjgwMzYgMCAwLjE1MzczMUwgMS4wNjgzNiAwLjE1MzczMUwgMS4xMjE3NyAxLjI2NjZDIDEuMzU5OCAwLjg2NDUzNSAxLjcwMjQ3IDAuNTM0NTk0IDIuMTEzMjUgMC4zMTE5NTRDIDIuNTI0MDQgMC4wODkzMTQ1IDIuOTg3NTQgLTAuMDE3Njc4NiAzLjQ1NDM1IDAuMDAyMzgwOTVDIDUuMDM5MDggMC4wMDIzODA5NSA2LjIzMjA4IDEuMzI4OTIgNi4yMzIwOCAzLjMwNTM4QyA2LjIzMjA4IDUuNjM3OTYgNC43OTg3IDYuNzk1MzUgMy4yNDk1OCA2Ljc5NTM1QyAyLjg1MzA5IDYuODEzMDQgMi40NTg3NCA2LjcyODEgMi4xMDQ2OSA2LjU0ODc0QyAxLjc1MDY0IDYuMzY5MzcgMS40NDg4OCA2LjEwMTY2IDEuMjI4NjEgNS43NzE1MUwgMS4yMjg2MSA1Ljc3MTUxTCAxLjIyODYxIDkuMzMyNjlMIDAuMDUzNDE3OCA5LjMzMjY5TCAwLjA1MzQxNzggMi4yOTkzNUwgMC4wNTM0MTc4IDIuMjcyNjRaTSAxLjIyODYxIDQuMDA4NzJDIDEuMjMxODQgNC4xNzAyNiAxLjI0OTcyIDQuMzMxMTcgMS4yODIwMyA0LjQ4OTQ4QyAxLjM4MzA0IDQuODg0NzkgMS42MTI5OSA1LjIzNTEzIDEuOTM1NDggNS40ODUwNkMgMi4yNTc5OCA1LjczNSAyLjY1NDYxIDUuODcwMjYgMy4wNjI2MiA1Ljg2OTQ0QyA0LjMxNzk0IDUuODY5NDQgNS4wNTY4OSA0Ljg0NTYgNS4wNTY4OSAzLjM1ODhDIDUuMDU2ODkgMi4wNTg5NyA0LjM2MjQ2IDAuOTQ2MDk2IDMuMTA3MTQgMC45NDYwOTZDIDIuNjEwMzYgMC45ODY3NzcgMi4xNDU0OCAxLjIwNzI2IDEuNzk5NjUgMS41NjYyQyAxLjQ1MzgyIDEuOTI1MTQgMS4yNTA3OSAyLjM5NzkgMS4yMjg2MSAyLjg5NTg1TCAxLjIyODYxIDQuMDA4NzJaIiBpZD0icGF0aDJfZmlsbCIvPiYjeGE7PHBhdGggZD0iTSAxLjMxNzY0IDAuMDE3ODA1OUwgMi43NTEwMiAzLjg1NDk5QyAyLjkwMjM3IDQuMjgyMzMgMy4wNjI2MiA0Ljc5ODcgMy4xNjk0NiA1LjE4MTUzQyAzLjI5NDEgNC43ODk4IDMuNDI3NjQgNC4yOTEyMyAzLjU4NzkgMy44MjgyOEwgNC44ODc3MyAwLjAxNzgwNTlMIDYuMTQzMDUgMC4wMTc4MDU5TCA0LjM2MjQ2IDQuNjQ3MzVDIDMuNDcyMTYgNi44NzMwOSAyLjkyOTA4IDguMDIxNTggMi4xMSA4LjcxNjAxQyAxLjY5NzQ1IDkuMDkyODMgMS4xOTQ0OCA5LjM1NjU4IDAuNjQ5OTE3IDkuNDgxNjZMIDAuMzU2MTE5IDguNDg0NTNDIDAuNzM2ODg2IDguMzU5NDIgMS4wOTAzOCA4LjE2MzA0IDEuMzk3NzcgNy45MDU4NEMgMS44MzIxIDcuNTUxODggMi4xNzY3OCA3LjEwMDQ0IDIuNDAzOCA2LjU4ODJDIDIuNDUyMzkgNi40OTk0OSAyLjQ4NTUxIDYuNDAzMTQgMi41MDE3MyA2LjMwMzNDIDIuNDkxNjEgNi4xOTU4NiAyLjQ2NDU3IDYuMDkwNyAyLjQyMTYxIDUuOTkxN0wgMCAwTCAxLjI5OTgzIDBMIDEuMzE3NjQgMC4wMTc4MDU5WiIgaWQ9InBhdGgzX2ZpbGwiLz4mI3hhOzxwYXRoIGQ9Ik0gMi4xOTAxMyAwTCAyLjE5MDEzIDEuODY5NjJMIDMuODk5NSAxLjg2OTYyTCAzLjg5OTUgMi43NTk5MkwgMi4xOTAxMyAyLjc1OTkyTCAyLjE5MDEzIDYuMjY3NjlDIDIuMTkwMTMgNy4wNjg5NiAyLjQyMTYxIDcuNTMxOTEgMy4wODA0MyA3LjUzMTkxQyAzLjMxNDQyIDcuNTM1NzQgMy41NDc4OSA3LjUwODggMy43NzQ4NiA3LjQ1MTc5TCAzLjgyODI4IDguMzQyMDhDIDMuNDg3OTQgOC40NTk5OSAzLjEyODgxIDguNTE0MzEgMi43Njg4MiA4LjUwMjM0QyAyLjUzMDQyIDguNTE3MjYgMi4yOTE2MSA4LjQ4MDQzIDIuMDY4NzggOC4zOTQzN0MgMS44NDU5NSA4LjMwODMxIDEuNjQ0MzggOC4xNzUwNiAxLjQ3Nzg5IDguMDAzNzdDIDEuMTE1MjUgNy41MTg3MyAwLjk0OTgyNiA2LjkxNDMxIDEuMDE0OTQgNi4zMTIyMUwgMS4wMTQ5NCAyLjc1MTAyTCAwIDIuNzUxMDJMIDAgMS44NjA3MkwgMS4wMzI3NCAxLjg2MDcyTCAxLjAzMjc0IDAuMjc1OTkyTCAyLjE5MDEzIDBaIiBpZD0icGF0aDRfZmlsbCIvPiYjeGE7PHBhdGggZD0iTSAxLjE3NzE2IDMuNTc4OTlDIDEuMTUzIDMuODgwOTMgMS4xOTQ2OCA0LjE4NDUxIDEuMjk5MzMgNC40Njg3NkMgMS40MDM5OCA0Ljc1MzAxIDEuNTY5MSA1LjAxMTE0IDEuNzgzMjkgNS4yMjUzMkMgMS45OTc0NyA1LjQzOTUxIDIuMjU1NiA1LjYwNDYzIDIuNTM5ODUgNS43MDkyOEMgMi44MjQxIDUuODEzOTMgMy4xMjc2OCA1Ljg1NTYxIDMuNDI5NjIgNS44MzE0NUMgNC4wNDAzMyA1Ljg0NTExIDQuNjQ3MDYgNS43Mjk4MyA1LjIxMDIxIDUuNDkzMTNMIDUuNDE0OTggNi4zODM0M0MgNC43MjM5MyA2LjY2ODA5IDMuOTgwODUgNi44MDQ1OCAzLjIzMzc1IDYuNzg0MDZDIDIuNzk4MjEgNi44MTM4OCAyLjM2MTM4IDYuNzQ5MTQgMS45NTMyMiA2LjU5NDI3QyAxLjU0NTA1IDYuNDM5NDEgMS4xNzUyMiA2LjE5ODA5IDAuODY5MDcxIDUuODg2ODhDIDAuNTYyOTI4IDUuNTc1NjYgMC4zMjc3MjMgNS4yMDE5IDAuMTc5NTkxIDQuNzkxMjVDIDAuMDMxNDU4NCA0LjM4MDU5IC0wLjAyNjA5NjIgMy45NDI3NiAwLjAxMDg3NDggMy41MDc3N0MgMC4wMTA4NzQ4IDEuNTQ5MTIgMS4xNzcxNiAwIDMuMDgyNCAwQyA1LjIxOTExIDAgNS43NTMyOSAxLjg2OTYyIDUuNzUzMjkgMy4wNjI2MkMgNS43NjQ3MSAzLjI0NjQ0IDUuNzY0NzEgMy40MzA3OSA1Ljc1MzI5IDMuNjE0NjFMIDEuMTUwNDYgMy42MTQ2MUwgMS4xNzcxNiAzLjU3ODk5Wk0gNC42NjcxMyAyLjY4ODdDIDQuNzAxNDkgMi40NTA2NyA0LjY4NDQzIDIuMjA4MDUgNC42MTcwOSAxLjk3NzE4QyA0LjU0OTc2IDEuNzQ2MzEgNC40MzM3MiAxLjUzMjU1IDQuMjc2OCAxLjM1MDMxQyA0LjExOTg3IDEuMTY4MDggMy45MjU3MSAxLjAyMTYgMy43MDczOSAwLjkyMDc0NEMgMy40ODkwNyAwLjgxOTg5IDMuMjUxNjYgMC43NjcwMDYgMy4wMTExOCAwLjc2NTY1NkMgMi41MjIwMSAwLjgwMTA2NCAyLjA2MzcxIDEuMDE3ODggMS43MjYwOSAxLjM3MzYyQyAxLjM4ODQ3IDEuNzI5MzUgMS4xOTU4OCAyLjE5ODM1IDEuMTg2MDcgMi42ODg3TCA0LjY2NzEzIDIuNjg4N1oiIGlkPSJwYXRoNV9maWxsIi8+JiN4YTs8cGF0aCBkPSJNIDAuMDUzNDE3OCAyLjE5MjI4QyAwLjA1MzQxNzggMS40MjY2MyAwLjA1MzQxNzggMC43Njc4MDYgMCAwLjE2MjQwNEwgMS4wNjgzNiAwLjE2MjQwNEwgMS4wNjgzNiAxLjQzNTUzTCAxLjEyMTc3IDEuNDM1NTNDIDEuMjMzOTEgMS4wNDI1OSAxLjQ2NTYgMC42OTQzMTQgMS43ODQ2OCAwLjQzOTA0OUMgMi4xMDM3NiAwLjE4Mzc4MyAyLjQ5NDQgMC4wMzQxOTYgMi45MDIzNyAwLjAxMTA1MzhDIDMuMDE0NjYgLTAuMDAzNjg0NTkgMy4xMjgzOSAtMC4wMDM2ODQ1OSAzLjI0MDY4IDAuMDExMDUzOEwgMy4yNDA2OCAxLjEyMzkzQyAzLjEwNDYyIDEuMTA4MTcgMi45NjcyIDEuMTA4MTcgMi44MzExNCAxLjEyMzkzQyAyLjQyNyAxLjEzOTU4IDIuMDQyMzcgMS4zMDE4MiAxLjc0OTEgMS41ODAzNUMgMS40NTU4MyAxLjg1ODg3IDEuMjczOTggMi4yMzQ2MiAxLjIzNzUxIDIuNjM3NDNDIDEuMjA0MjIgMi44MTk2IDEuMTg2MzUgMy4wMDQyNSAxLjE4NDEgMy4xODk0MUwgMS4xODQxIDYuNjUyNjdMIDAuMDA4OTAyOTcgNi42NTI2N0wgMC4wMDg5MDI5NyAyLjIwMTE4TCAwLjA1MzQxNzggMi4xOTIyOFoiIGlkPSJwYXRoNl9maWxsIi8+JiN4YTs8cGF0aCBkPSJNIDYuMDMwNTkgMi44MzU2NUMgNi4wNjcxNSAzLjQzMzc2IDUuOTI0ODUgNC4wMjkyMSA1LjYyMTggNC41NDYxNUMgNS4zMTg3NSA1LjA2MzEgNC44Njg2OSA1LjQ3ODEzIDQuMzI4OTMgNS43MzgzOUMgMy43ODkxNyA1Ljk5ODY0IDMuMTg0MTYgNi4wOTIzMyAyLjU5MDk3IDYuMDA3NTNDIDEuOTk3NzggNS45MjI3MiAxLjQ0MzI2IDUuNjYzMjYgMC45OTgwNDggNS4yNjIxOUMgMC41NTI4MzcgNC44NjExMyAwLjIzNzA5IDQuMzM2NjEgMC4wOTEwMzA3IDMuNzU1NDZDIC0wLjA1NTAyODcgMy4xNzQzMSAtMC4wMjQ3ODkxIDIuNTYyODMgMC4xNzc4OTcgMS45OTg5M0MgMC4zODA1ODMgMS40MzUwMyAwLjc0NjU0MSAwLjk0NDIyMSAxLjIyOTE1IDAuNTg5MDM3QyAxLjcxMTc2IDAuMjMzODUzIDIuMjg5MTggMC4wMzAzNjg2IDIuODg3ODQgMC4wMDQ1MDU0M0MgMy4yODAzNSAtMC4wMTcwOTMyIDMuNjczMjYgMC4wMzkxMTQ0IDQuMDQzOTYgMC4xNjk4OTZDIDQuNDE0NjcgMC4zMDA2NzcgNC43NTU4NyAwLjUwMzQ1MyA1LjA0Nzk0IDAuNzY2NTYxQyA1LjM0IDEuMDI5NjcgNS41NzcxOCAxLjM0NzkyIDUuNzQ1ODIgMS43MDMwMUMgNS45MTQ0NiAyLjA1ODEgNi4wMTEyNCAyLjQ0MzAzIDYuMDMwNTkgMi44MzU2NUwgNi4wMzA1OSAyLjgzNTY1WiIgaWQ9InBhdGg3X2ZpbGwiLz4mI3hhOzxwYXRoIGQ9Ik0gMTguNjk2MiA3LjEyMjM4QyAxMC42ODM2IDcuMTIyMzggMy42NDEzMSA0LjI0NjcyIDAgMEMgMS40MTI4NCAzLjgyMDQxIDMuOTYyMTUgNy4xMTYzIDcuMzA0NzkgOS40NDQwNEMgMTAuNjQ3NCAxMS43NzE4IDE0LjYyMyAxMy4wMTk2IDE4LjY5NjIgMTMuMDE5NkMgMjIuNzY5NSAxMy4wMTk2IDI2Ljc0NSAxMS43NzE4IDMwLjA4NzcgOS40NDQwNEMgMzMuNDMwMyA3LjExNjMgMzUuOTc5NiAzLjgyMDQxIDM3LjM5MjUgNC4wNDg2ZS0xM0MgMzMuNzYwMSA0LjI0NjcyIDI2Ljc0NDUgNy4xMjIzOCAxOC42OTYyIDcuMTIyMzhaIiBpZD0icGF0aDhfZmlsbCIvPiYjeGE7PHBhdGggZD0iTSAxOC42OTYyIDUuODk3MjVDIDI2LjcwODkgNS44OTcyNSAzMy43NTEyIDguNzcyOTEgMzcuMzkyNSAxMy4wMTk2QyAzNS45Nzk2IDkuMTk5MjIgMzMuNDMwMyA1LjkwMzMzIDMwLjA4NzcgMy41NzU1OUMgMjYuNzQ1IDEuMjQ3ODUgMjIuNzY5NSA0LjA0ODZlLTEzIDE4LjY5NjIgMEMgMTQuNjIzIDQuMDQ4NmUtMTMgMTAuNjQ3NCAxLjI0Nzg1IDcuMzA0NzkgMy41NzU1OUMgMy45NjIxNSA1LjkwMzMzIDEuNDEyODQgOS4xOTkyMiAwIDEzLjAxOTZDIDMuNjQxMzEgOC43NjQwMSAxMC42NDggNS44OTcyNSAxOC42OTYyIDUuODk3MjVaIiBpZD0icGF0aDlfZmlsbCIvPiYjeGE7PHBhdGggZD0iTSA3LjU5NTc2IDMuNTY2NTZDIDcuNjQyNzYgNC4zMTk5MiA3LjQ2NDQyIDUuMDcwMjIgNy4wODM0NyA1LjcyMTg2QyA2LjcwMjUxIDYuMzczNSA2LjEzNjE5IDYuODk2OTggNS40NTY2NiA3LjIyNTYxQyA0Ljc3NzEzIDcuNTU0MjQgNC4wMTUxNSA3LjY3MzE0IDMuMjY3ODEgNy41NjcxNkMgMi41MjA0NiA3LjQ2MTE3IDEuODIxNTggNy4xMzUxMSAxLjI2MDIxIDYuNjMwNTFDIDAuNjk4ODM5IDYuMTI1OTEgMC4zMDAzOTQgNS40NjU2MSAwLjExNTYzNyA0LjczMzc1QyAtMC4wNjkxMTkxIDQuMDAxODggLTAuMDMxODIxOSAzLjIzMTU5IDAuMjIyNzc3IDIuNTIwOTlDIDAuNDc3Mzc2IDEuODEwNCAwLjkzNzc1IDEuMTkxNjkgMS41NDUyNCAwLjc0MzY4NUMgMi4xNTI3NCAwLjI5NTY3OCAyLjg3OTg1IDAuMDM4NjU5NSAzLjYzMzk0IDAuMDA1Mzc1ODlDIDQuMTI3OTMgLTAuMDIxMDQ3MSA0LjYyMjI5IDAuMDUwMTE3MyA1LjA4ODc4IDAuMjE0ODAzQyA1LjU1NTI2IDAuMzc5NDkgNS45ODQ3MyAwLjYzNDQ3IDYuMzUyNjQgMC45NjUxNzlDIDYuNzIwNTUgMS4yOTU4OSA3LjAxOTcxIDEuNjk1ODQgNy4yMzMgMi4xNDIyQyA3LjQ0NjMgMi41ODg1NSA3LjU2OTU3IDMuMDcyNTYgNy41OTU3NiAzLjU2NjU2TCA3LjU5NTc2IDMuNTY2NTZaIiBpZD0icGF0aDEwX2ZpbGwiLz4mI3hhOzxwYXRoIGQ9Ik0gMi4yNTA2MSA0LjM3OTQzQyAxLjgxODg2IDQuMzkxMzUgMS4zOTMyMiA0LjI3NTM1IDEuMDI3MjIgNC4wNDYwMkMgMC42NjEyMjQgMy44MTY2OCAwLjM3MTIwNiAzLjQ4NDI0IDAuMTkzNjQxIDMuMDkwNTJDIDAuMDE2MDc2MiAyLjY5Njc5IC0wLjA0MTEwNzggMi4yNTkzNSAwLjAyOTI4MDQgMS44MzMyMUMgMC4wOTk2Njg2IDEuNDA3MDcgMC4yOTQ0ODYgMS4wMTEyNSAwLjU4OTIzMyAwLjY5NTU0MkMgMC44ODM5ODEgMC4zNzk4MyAxLjI2NTUgMC4xNTgzMTYgMS42ODU4MSAwLjA1ODg1NzdDIDIuMTA2MTEgLTAuMDQwNjAwNSAyLjU0NjQ0IC0wLjAxMzU2MjIgMi45NTE0MyAwLjEzNjU3MkMgMy4zNTY0MSAwLjI4NjcwNyAzLjcwNzk2IDAuNTUzMjM0IDMuOTYxODYgMC45MDI2MzZDIDQuMjE1NzcgMS4yNTIwNCA0LjM2MDcgMS42Njg3MiA0LjM3ODQyIDIuMTAwMjdDIDQuMzk1MjkgMi42ODM4IDQuMTgxMzEgMy4yNTA0NCAzLjc4MjkzIDMuNjc3MTVDIDMuMzg0NTUgNC4xMDM4NyAyLjgzMzkyIDQuMzU2MjMgMi4yNTA2MSA0LjM3OTQzWiIgaWQ9InBhdGgxMV9maWxsIi8+JiN4YTs8L2RlZnM+JiN4YTs8L3N2Zz4=;" vertex="1" parent="1">
          <mxGeometry x="640" y="265.00000000000006" width="35" height="40.57" as="geometry" />
        </mxCell>
        <mxCell id="NeGIg2A49nrBojpMStaA-32" style="edgeStyle=orthogonalEdgeStyle;rounded=0;orthogonalLoop=1;jettySize=auto;html=1;" edge="1" parent="1" source="NeGIg2A49nrBojpMStaA-14" target="NeGIg2A49nrBojpMStaA-13">
          <mxGeometry relative="1" as="geometry" />
        </mxCell>
        <mxCell id="NeGIg2A49nrBojpMStaA-14" value="" style="shape=image;verticalLabelPosition=bottom;labelBackgroundColor=default;verticalAlign=top;aspect=fixed;imageAspect=0;image=data:image/svg+xml,PHN2ZyB4bWxuczp4bGluaz0iaHR0cDovL3d3dy53My5vcmcvMTk5OS94bGluayIgeG1sbnM9Imh0dHA6Ly93d3cudzMub3JnLzIwMDAvc3ZnIiB2ZXJzaW9uPSIyLjAiIHZpZXdCb3g9IjAgMCA0NCA1MSIgaGVpZ2h0PSI1MSIgd2lkdGg9IjQ0Ij4mI3hhOzx0aXRsZT5Hcm91cC5zdmc8L3RpdGxlPiYjeGE7PGRlc2M+Q3JlYXRlZCB1c2luZyBGaWdtYSAwLjkwPC9kZXNjPiYjeGE7PGcgdHJhbnNmb3JtPSJ0cmFuc2xhdGUoLTE2NDAgLTI0NTMpIiBpZD0iQ2FudmFzIj4mI3hhOzxnIHN0eWxlPSJtaXgtYmxlbmQtbW9kZTpub3JtYWw7IiBpZD0iR3JvdXAiPiYjeGE7PGcgc3R5bGU9Im1peC1ibGVuZC1tb2RlOm5vcm1hbDsiIGlkPSJHcm91cCI+JiN4YTs8ZyBzdHlsZT0ibWl4LWJsZW5kLW1vZGU6bm9ybWFsOyIgaWQ9Ikdyb3VwIj4mI3hhOzxnIHN0eWxlPSJtaXgtYmxlbmQtbW9kZTpub3JtYWw7IiBpZD0iZyI+JiN4YTs8ZyBzdHlsZT0ibWl4LWJsZW5kLW1vZGU6bm9ybWFsOyIgaWQ9InBhdGgiPiYjeGE7PGcgc3R5bGU9Im1peC1ibGVuZC1tb2RlOm5vcm1hbDsiIGlkPSJwYXRoOSBmaWxsIj4mI3hhOzx1c2Ugc3R5bGU9Im1peC1ibGVuZC1tb2RlOm5vcm1hbDsiIGZpbGw9IiM0RTRFNEUiIHRyYW5zZm9ybT0idHJhbnNsYXRlKDE2NDAuNTQgMjQ3NC4zNikiIHhsaW5rOmhyZWY9IiNwYXRoMF9maWxsIi8+JiN4YTs8L2c+JiN4YTs8L2c+JiN4YTs8ZyBzdHlsZT0ibWl4LWJsZW5kLW1vZGU6bm9ybWFsOyIgaWQ9InBhdGgiPiYjeGE7PGcgc3R5bGU9Im1peC1ibGVuZC1tb2RlOm5vcm1hbDsiIGlkPSJwYXRoMTAgZmlsbCI+JiN4YTs8dXNlIHN0eWxlPSJtaXgtYmxlbmQtbW9kZTpub3JtYWw7IiBmaWxsPSIjNEU0RTRFIiB0cmFuc2Zvcm09InRyYW5zbGF0ZSgxNjQ1LjY4IDI0NzQuMzcpIiB4bGluazpocmVmPSIjcGF0aDFfZmlsbCIvPiYjeGE7PC9nPiYjeGE7PC9nPiYjeGE7PGcgc3R5bGU9Im1peC1ibGVuZC1tb2RlOm5vcm1hbDsiIGlkPSJwYXRoIj4mI3hhOzxnIHN0eWxlPSJtaXgtYmxlbmQtbW9kZTpub3JtYWw7IiBpZD0icGF0aDExIGZpbGwiPiYjeGE7PHVzZSBzdHlsZT0ibWl4LWJsZW5kLW1vZGU6bm9ybWFsOyIgZmlsbD0iIzRFNEU0RSIgdHJhbnNmb3JtPSJ0cmFuc2xhdGUoMTY1My4zOSAyNDc0LjI2KSIgeGxpbms6aHJlZj0iI3BhdGgyX2ZpbGwiLz4mI3hhOzwvZz4mI3hhOzwvZz4mI3hhOzxnIHN0eWxlPSJtaXgtYmxlbmQtbW9kZTpub3JtYWw7IiBpZD0icGF0aCI+JiN4YTs8ZyBzdHlsZT0ibWl4LWJsZW5kLW1vZGU6bm9ybWFsOyIgaWQ9InBhdGgxMiBmaWxsIj4mI3hhOzx1c2Ugc3R5bGU9Im1peC1ibGVuZC1tb2RlOm5vcm1hbDsiIGZpbGw9IiM0RTRFNEUiIHRyYW5zZm9ybT0idHJhbnNsYXRlKDE2NjAuNDMgMjQ3NC4zOSkiIHhsaW5rOmhyZWY9IiNwYXRoM19maWxsIi8+JiN4YTs8L2c+JiN4YTs8L2c+JiN4YTs8ZyBzdHlsZT0ibWl4LWJsZW5kLW1vZGU6bm9ybWFsOyIgaWQ9InBhdGgiPiYjeGE7PGcgc3R5bGU9Im1peC1ibGVuZC1tb2RlOm5vcm1hbDsiIGlkPSJwYXRoMTMgZmlsbCI+JiN4YTs8dXNlIHN0eWxlPSJtaXgtYmxlbmQtbW9kZTpub3JtYWw7IiBmaWxsPSIjNEU0RTRFIiB0cmFuc2Zvcm09InRyYW5zbGF0ZSgxNjY3LjU1IDI0NzIuNTQpIiB4bGluazpocmVmPSIjcGF0aDRfZmlsbCIvPiYjeGE7PC9nPiYjeGE7PC9nPiYjeGE7PGcgc3R5bGU9Im1peC1ibGVuZC1tb2RlOm5vcm1hbDsiIGlkPSJwYXRoIj4mI3hhOzxnIHN0eWxlPSJtaXgtYmxlbmQtbW9kZTpub3JtYWw7IiBpZD0icGF0aDE0IGZpbGwiPiYjeGE7PHVzZSBzdHlsZT0ibWl4LWJsZW5kLW1vZGU6bm9ybWFsOyIgZmlsbD0iIzRFNEU0RSIgdHJhbnNmb3JtPSJ0cmFuc2xhdGUoMTY3Mi40NyAyNDc0LjI5KSIgeGxpbms6aHJlZj0iI3BhdGg1X2ZpbGwiLz4mI3hhOzwvZz4mI3hhOzwvZz4mI3hhOzxnIHN0eWxlPSJtaXgtYmxlbmQtbW9kZTpub3JtYWw7IiBpZD0icGF0aCI+JiN4YTs8ZyBzdHlsZT0ibWl4LWJsZW5kLW1vZGU6bm9ybWFsOyIgaWQ9InBhdGgxNSBmaWxsIj4mI3hhOzx1c2Ugc3R5bGU9Im1peC1ibGVuZC1tb2RlOm5vcm1hbDsiIGZpbGw9IiM0RTRFNEUiIHRyYW5zZm9ybT0idHJhbnNsYXRlKDE2NzkuOTggMjQ3NC4yNCkiIHhsaW5rOmhyZWY9IiNwYXRoNl9maWxsIi8+JiN4YTs8L2c+JiN4YTs8L2c+JiN4YTs8L2c+JiN4YTs8L2c+JiN4YTs8ZyBzdHlsZT0ibWl4LWJsZW5kLW1vZGU6bm9ybWFsOyIgaWQ9ImciPiYjeGE7PGcgc3R5bGU9Im1peC1ibGVuZC1tb2RlOm5vcm1hbDsiIGlkPSJwYXRoIj4mI3hhOzxnIHN0eWxlPSJtaXgtYmxlbmQtbW9kZTpub3JtYWw7IiBpZD0icGF0aDE2IGZpbGwiPiYjeGE7PHVzZSBzdHlsZT0ibWl4LWJsZW5kLW1vZGU6bm9ybWFsOyIgZmlsbD0iIzc2NzY3NyIgdHJhbnNmb3JtPSJ0cmFuc2xhdGUoMTY3My40OCAyNDUzLjY5KSIgeGxpbms6aHJlZj0iI3BhdGg3X2ZpbGwiLz4mI3hhOzwvZz4mI3hhOzwvZz4mI3hhOzxnIHN0eWxlPSJtaXgtYmxlbmQtbW9kZTpub3JtYWw7IiBpZD0icGF0aCI+JiN4YTs8ZyBzdHlsZT0ibWl4LWJsZW5kLW1vZGU6bm9ybWFsOyIgaWQ9InBhdGgxNyBmaWxsIj4mI3hhOzx1c2Ugc3R5bGU9Im1peC1ibGVuZC1tb2RlOm5vcm1hbDsiIGZpbGw9IiNGMzc3MjYiIHRyYW5zZm9ybT0idHJhbnNsYXRlKDE2NDMuMjEgMjQ4NC4yNykiIHhsaW5rOmhyZWY9IiNwYXRoOF9maWxsIi8+JiN4YTs8L2c+JiN4YTs8L2c+JiN4YTs8ZyBzdHlsZT0ibWl4LWJsZW5kLW1vZGU6bm9ybWFsOyIgaWQ9InBhdGgiPiYjeGE7PGcgc3R5bGU9Im1peC1ibGVuZC1tb2RlOm5vcm1hbDsiIGlkPSJwYXRoMTggZmlsbCI+JiN4YTs8dXNlIHN0eWxlPSJtaXgtYmxlbmQtbW9kZTpub3JtYWw7IiBmaWxsPSIjRjM3NzI2IiB0cmFuc2Zvcm09InRyYW5zbGF0ZSgxNjQzLjIxIDI0NTcuODgpIiB4bGluazpocmVmPSIjcGF0aDlfZmlsbCIvPiYjeGE7PC9nPiYjeGE7PC9nPiYjeGE7PGcgc3R5bGU9Im1peC1ibGVuZC1tb2RlOm5vcm1hbDsiIGlkPSJwYXRoIj4mI3hhOzxnIHN0eWxlPSJtaXgtYmxlbmQtbW9kZTpub3JtYWw7IiBpZD0icGF0aDE5IGZpbGwiPiYjeGE7PHVzZSBzdHlsZT0ibWl4LWJsZW5kLW1vZGU6bm9ybWFsOyIgZmlsbD0iIzlFOUU5RSIgdHJhbnNmb3JtPSJ0cmFuc2xhdGUoMTY0My4yOCAyNDk2LjA5KSIgeGxpbms6aHJlZj0iI3BhdGgxMF9maWxsIi8+JiN4YTs8L2c+JiN4YTs8L2c+JiN4YTs8ZyBzdHlsZT0ibWl4LWJsZW5kLW1vZGU6bm9ybWFsOyIgaWQ9InBhdGgiPiYjeGE7PGcgc3R5bGU9Im1peC1ibGVuZC1tb2RlOm5vcm1hbDsiIGlkPSJwYXRoMjAgZmlsbCI+JiN4YTs8dXNlIHN0eWxlPSJtaXgtYmxlbmQtbW9kZTpub3JtYWw7IiBmaWxsPSIjNjE2MjYyIiB0cmFuc2Zvcm09InRyYW5zbGF0ZSgxNjQxLjg3IDI0NTguNDMpIiB4bGluazpocmVmPSIjcGF0aDExX2ZpbGwiLz4mI3hhOzwvZz4mI3hhOzwvZz4mI3hhOzwvZz4mI3hhOzwvZz4mI3hhOzwvZz4mI3hhOzwvZz4mI3hhOzxkZWZzPiYjeGE7PHBhdGggZD0iTSAxLjc0NDk4IDUuNDc1MzNDIDEuNzQ0OTggNy4wMzMzNSAxLjYyMDM0IDcuNTQwODIgMS4yOTk4MyA3LjkxNDc0QyAwLjk0MzExOSA4LjIzNTk1IDAuNDgwMDI0IDguNDEzNTggMCA4LjQxMzMxTCAwLjEyNDY0MiA5LjMwMzZDIDAuODY4ODQgOS4zMTM2NiAxLjU5MDk1IDkuMDUwNzggMi4xNTQ1MiA4LjU2NDY2QyAyLjQ1Nzc1IDguMTk0ODcgMi42ODM0IDcuNzY3ODEgMi44MTggNy4zMDg5M0MgMi45NTI2MSA2Ljg1MDA1IDIuOTkzNDEgNi4zNjg3NiAyLjkzNzk4IDUuODkzNzdMIDIuOTM3OTggMEwgMS43NDQ5OCAwTCAxLjc0NDk4IDUuNDM5NzJMIDEuNzQ0OTggNS40NzUzM1oiIGlkPSJwYXRoMF9maWxsIi8+JiN4YTs8cGF0aCBkPSJNIDUuNTAyMDQgNC43NjMwOUMgNS41MDIwNCA1LjQzMDgxIDUuNTAyMDQgNi4wMjczMSA1LjU1NTQ1IDYuNTQzNjhMIDQuNDk2IDYuNTQzNjhMIDQuNDI0NzggNS40ODQyM0MgNC4yMDMxOCA1Ljg1OTA5IDMuODg2MjcgNi4xNjg1OCAzLjUwNjI4IDYuMzgxMjVDIDMuMTI2MjggNi41OTM5MiAyLjY5Njc1IDYuNzAyMTkgMi4yNjEzNSA2LjY5NTAzQyAxLjIyODYxIDYuNjk1MDMgMCA2LjEzNDE1IDAgMy44NDYwOEwgMCAwLjA0NDUxNDlMIDEuMTkzIDAuMDQ0NTE0OUwgMS4xOTMgMy42MDU3QyAxLjE5MyA0Ljg0MzIyIDEuNTc1ODMgNS42NzExOSAyLjY1MzA5IDUuNjcxMTlDIDIuODc0NzIgNS42NzM1OCAzLjA5NDU5IDUuNjMxNjggMy4yOTk4MiA1LjU0Nzk2QyAzLjUwNTA1IDUuNDY0MjQgMy42OTE0OSA1LjM0MDM5IDMuODQ4MjIgNS4xODM2NkMgNC4wMDQ5NCA1LjAyNjk0IDQuMTI4OCA0Ljg0MDQ5IDQuMjEyNTIgNC42MzUyN0MgNC4yOTYyMyA0LjQzMDA0IDQuMzM4MTMgNC4yMTAxNiA0LjMzNTc1IDMuOTg4NTNMIDQuMzM1NzUgMEwgNS41Mjg3NCAwTCA1LjUyODc0IDQuNzI3NDhMIDUuNTAyMDQgNC43NjMwOVoiIGlkPSJwYXRoMV9maWxsIi8+JiN4YTs8cGF0aCBkPSJNIDAuMDUzNDE3OCAyLjI3MjY0QyAwLjA1MzQxNzggMS40NDQ2NiAwLjA1MzQxNzggMC43NjgwMzYgMCAwLjE1MzczMUwgMS4wNjgzNiAwLjE1MzczMUwgMS4xMjE3NyAxLjI2NjZDIDEuMzU5OCAwLjg2NDUzNSAxLjcwMjQ3IDAuNTM0NTk0IDIuMTEzMjUgMC4zMTE5NTRDIDIuNTI0MDQgMC4wODkzMTQ1IDIuOTg3NTQgLTAuMDE3Njc4NiAzLjQ1NDM1IDAuMDAyMzgwOTVDIDUuMDM5MDggMC4wMDIzODA5NSA2LjIzMjA4IDEuMzI4OTIgNi4yMzIwOCAzLjMwNTM4QyA2LjIzMjA4IDUuNjM3OTYgNC43OTg3IDYuNzk1MzUgMy4yNDk1OCA2Ljc5NTM1QyAyLjg1MzA5IDYuODEzMDQgMi40NTg3NCA2LjcyODEgMi4xMDQ2OSA2LjU0ODc0QyAxLjc1MDY0IDYuMzY5MzcgMS40NDg4OCA2LjEwMTY2IDEuMjI4NjEgNS43NzE1MUwgMS4yMjg2MSA1Ljc3MTUxTCAxLjIyODYxIDkuMzMyNjlMIDAuMDUzNDE3OCA5LjMzMjY5TCAwLjA1MzQxNzggMi4yOTkzNUwgMC4wNTM0MTc4IDIuMjcyNjRaTSAxLjIyODYxIDQuMDA4NzJDIDEuMjMxODQgNC4xNzAyNiAxLjI0OTcyIDQuMzMxMTcgMS4yODIwMyA0LjQ4OTQ4QyAxLjM4MzA0IDQuODg0NzkgMS42MTI5OSA1LjIzNTEzIDEuOTM1NDggNS40ODUwNkMgMi4yNTc5OCA1LjczNSAyLjY1NDYxIDUuODcwMjYgMy4wNjI2MiA1Ljg2OTQ0QyA0LjMxNzk0IDUuODY5NDQgNS4wNTY4OSA0Ljg0NTYgNS4wNTY4OSAzLjM1ODhDIDUuMDU2ODkgMi4wNTg5NyA0LjM2MjQ2IDAuOTQ2MDk2IDMuMTA3MTQgMC45NDYwOTZDIDIuNjEwMzYgMC45ODY3NzcgMi4xNDU0OCAxLjIwNzI2IDEuNzk5NjUgMS41NjYyQyAxLjQ1MzgyIDEuOTI1MTQgMS4yNTA3OSAyLjM5NzkgMS4yMjg2MSAyLjg5NTg1TCAxLjIyODYxIDQuMDA4NzJaIiBpZD0icGF0aDJfZmlsbCIvPiYjeGE7PHBhdGggZD0iTSAxLjMxNzY0IDAuMDE3ODA1OUwgMi43NTEwMiAzLjg1NDk5QyAyLjkwMjM3IDQuMjgyMzMgMy4wNjI2MiA0Ljc5ODcgMy4xNjk0NiA1LjE4MTUzQyAzLjI5NDEgNC43ODk4IDMuNDI3NjQgNC4yOTEyMyAzLjU4NzkgMy44MjgyOEwgNC44ODc3MyAwLjAxNzgwNTlMIDYuMTQzMDUgMC4wMTc4MDU5TCA0LjM2MjQ2IDQuNjQ3MzVDIDMuNDcyMTYgNi44NzMwOSAyLjkyOTA4IDguMDIxNTggMi4xMSA4LjcxNjAxQyAxLjY5NzQ1IDkuMDkyODMgMS4xOTQ0OCA5LjM1NjU4IDAuNjQ5OTE3IDkuNDgxNjZMIDAuMzU2MTE5IDguNDg0NTNDIDAuNzM2ODg2IDguMzU5NDIgMS4wOTAzOCA4LjE2MzA0IDEuMzk3NzcgNy45MDU4NEMgMS44MzIxIDcuNTUxODggMi4xNzY3OCA3LjEwMDQ0IDIuNDAzOCA2LjU4ODJDIDIuNDUyMzkgNi40OTk0OSAyLjQ4NTUxIDYuNDAzMTQgMi41MDE3MyA2LjMwMzNDIDIuNDkxNjEgNi4xOTU4NiAyLjQ2NDU3IDYuMDkwNyAyLjQyMTYxIDUuOTkxN0wgMCAwTCAxLjI5OTgzIDBMIDEuMzE3NjQgMC4wMTc4MDU5WiIgaWQ9InBhdGgzX2ZpbGwiLz4mI3hhOzxwYXRoIGQ9Ik0gMi4xOTAxMyAwTCAyLjE5MDEzIDEuODY5NjJMIDMuODk5NSAxLjg2OTYyTCAzLjg5OTUgMi43NTk5MkwgMi4xOTAxMyAyLjc1OTkyTCAyLjE5MDEzIDYuMjY3NjlDIDIuMTkwMTMgNy4wNjg5NiAyLjQyMTYxIDcuNTMxOTEgMy4wODA0MyA3LjUzMTkxQyAzLjMxNDQyIDcuNTM1NzQgMy41NDc4OSA3LjUwODggMy43NzQ4NiA3LjQ1MTc5TCAzLjgyODI4IDguMzQyMDhDIDMuNDg3OTQgOC40NTk5OSAzLjEyODgxIDguNTE0MzEgMi43Njg4MiA4LjUwMjM0QyAyLjUzMDQyIDguNTE3MjYgMi4yOTE2MSA4LjQ4MDQzIDIuMDY4NzggOC4zOTQzN0MgMS44NDU5NSA4LjMwODMxIDEuNjQ0MzggOC4xNzUwNiAxLjQ3Nzg5IDguMDAzNzdDIDEuMTE1MjUgNy41MTg3MyAwLjk0OTgyNiA2LjkxNDMxIDEuMDE0OTQgNi4zMTIyMUwgMS4wMTQ5NCAyLjc1MTAyTCAwIDIuNzUxMDJMIDAgMS44NjA3MkwgMS4wMzI3NCAxLjg2MDcyTCAxLjAzMjc0IDAuMjc1OTkyTCAyLjE5MDEzIDBaIiBpZD0icGF0aDRfZmlsbCIvPiYjeGE7PHBhdGggZD0iTSAxLjE3NzE2IDMuNTc4OTlDIDEuMTUzIDMuODgwOTMgMS4xOTQ2OCA0LjE4NDUxIDEuMjk5MzMgNC40Njg3NkMgMS40MDM5OCA0Ljc1MzAxIDEuNTY5MSA1LjAxMTE0IDEuNzgzMjkgNS4yMjUzMkMgMS45OTc0NyA1LjQzOTUxIDIuMjU1NiA1LjYwNDYzIDIuNTM5ODUgNS43MDkyOEMgMi44MjQxIDUuODEzOTMgMy4xMjc2OCA1Ljg1NTYxIDMuNDI5NjIgNS44MzE0NUMgNC4wNDAzMyA1Ljg0NTExIDQuNjQ3MDYgNS43Mjk4MyA1LjIxMDIxIDUuNDkzMTNMIDUuNDE0OTggNi4zODM0M0MgNC43MjM5MyA2LjY2ODA5IDMuOTgwODUgNi44MDQ1OCAzLjIzMzc1IDYuNzg0MDZDIDIuNzk4MjEgNi44MTM4OCAyLjM2MTM4IDYuNzQ5MTQgMS45NTMyMiA2LjU5NDI3QyAxLjU0NTA1IDYuNDM5NDEgMS4xNzUyMiA2LjE5ODA5IDAuODY5MDcxIDUuODg2ODhDIDAuNTYyOTI4IDUuNTc1NjYgMC4zMjc3MjMgNS4yMDE5IDAuMTc5NTkxIDQuNzkxMjVDIDAuMDMxNDU4NCA0LjM4MDU5IC0wLjAyNjA5NjIgMy45NDI3NiAwLjAxMDg3NDggMy41MDc3N0MgMC4wMTA4NzQ4IDEuNTQ5MTIgMS4xNzcxNiAwIDMuMDgyNCAwQyA1LjIxOTExIDAgNS43NTMyOSAxLjg2OTYyIDUuNzUzMjkgMy4wNjI2MkMgNS43NjQ3MSAzLjI0NjQ0IDUuNzY0NzEgMy40MzA3OSA1Ljc1MzI5IDMuNjE0NjFMIDEuMTUwNDYgMy42MTQ2MUwgMS4xNzcxNiAzLjU3ODk5Wk0gNC42NjcxMyAyLjY4ODdDIDQuNzAxNDkgMi40NTA2NyA0LjY4NDQzIDIuMjA4MDUgNC42MTcwOSAxLjk3NzE4QyA0LjU0OTc2IDEuNzQ2MzEgNC40MzM3MiAxLjUzMjU1IDQuMjc2OCAxLjM1MDMxQyA0LjExOTg3IDEuMTY4MDggMy45MjU3MSAxLjAyMTYgMy43MDczOSAwLjkyMDc0NEMgMy40ODkwNyAwLjgxOTg5IDMuMjUxNjYgMC43NjcwMDYgMy4wMTExOCAwLjc2NTY1NkMgMi41MjIwMSAwLjgwMTA2NCAyLjA2MzcxIDEuMDE3ODggMS43MjYwOSAxLjM3MzYyQyAxLjM4ODQ3IDEuNzI5MzUgMS4xOTU4OCAyLjE5ODM1IDEuMTg2MDcgMi42ODg3TCA0LjY2NzEzIDIuNjg4N1oiIGlkPSJwYXRoNV9maWxsIi8+JiN4YTs8cGF0aCBkPSJNIDAuMDUzNDE3OCAyLjE5MjI4QyAwLjA1MzQxNzggMS40MjY2MyAwLjA1MzQxNzggMC43Njc4MDYgMCAwLjE2MjQwNEwgMS4wNjgzNiAwLjE2MjQwNEwgMS4wNjgzNiAxLjQzNTUzTCAxLjEyMTc3IDEuNDM1NTNDIDEuMjMzOTEgMS4wNDI1OSAxLjQ2NTYgMC42OTQzMTQgMS43ODQ2OCAwLjQzOTA0OUMgMi4xMDM3NiAwLjE4Mzc4MyAyLjQ5NDQgMC4wMzQxOTYgMi45MDIzNyAwLjAxMTA1MzhDIDMuMDE0NjYgLTAuMDAzNjg0NTkgMy4xMjgzOSAtMC4wMDM2ODQ1OSAzLjI0MDY4IDAuMDExMDUzOEwgMy4yNDA2OCAxLjEyMzkzQyAzLjEwNDYyIDEuMTA4MTcgMi45NjcyIDEuMTA4MTcgMi44MzExNCAxLjEyMzkzQyAyLjQyNyAxLjEzOTU4IDIuMDQyMzcgMS4zMDE4MiAxLjc0OTEgMS41ODAzNUMgMS40NTU4MyAxLjg1ODg3IDEuMjczOTggMi4yMzQ2MiAxLjIzNzUxIDIuNjM3NDNDIDEuMjA0MjIgMi44MTk2IDEuMTg2MzUgMy4wMDQyNSAxLjE4NDEgMy4xODk0MUwgMS4xODQxIDYuNjUyNjdMIDAuMDA4OTAyOTcgNi42NTI2N0wgMC4wMDg5MDI5NyAyLjIwMTE4TCAwLjA1MzQxNzggMi4xOTIyOFoiIGlkPSJwYXRoNl9maWxsIi8+JiN4YTs8cGF0aCBkPSJNIDYuMDMwNTkgMi44MzU2NUMgNi4wNjcxNSAzLjQzMzc2IDUuOTI0ODUgNC4wMjkyMSA1LjYyMTggNC41NDYxNUMgNS4zMTg3NSA1LjA2MzEgNC44Njg2OSA1LjQ3ODEzIDQuMzI4OTMgNS43MzgzOUMgMy43ODkxNyA1Ljk5ODY0IDMuMTg0MTYgNi4wOTIzMyAyLjU5MDk3IDYuMDA3NTNDIDEuOTk3NzggNS45MjI3MiAxLjQ0MzI2IDUuNjYzMjYgMC45OTgwNDggNS4yNjIxOUMgMC41NTI4MzcgNC44NjExMyAwLjIzNzA5IDQuMzM2NjEgMC4wOTEwMzA3IDMuNzU1NDZDIC0wLjA1NTAyODcgMy4xNzQzMSAtMC4wMjQ3ODkxIDIuNTYyODMgMC4xNzc4OTcgMS45OTg5M0MgMC4zODA1ODMgMS40MzUwMyAwLjc0NjU0MSAwLjk0NDIyMSAxLjIyOTE1IDAuNTg5MDM3QyAxLjcxMTc2IDAuMjMzODUzIDIuMjg5MTggMC4wMzAzNjg2IDIuODg3ODQgMC4wMDQ1MDU0M0MgMy4yODAzNSAtMC4wMTcwOTMyIDMuNjczMjYgMC4wMzkxMTQ0IDQuMDQzOTYgMC4xNjk4OTZDIDQuNDE0NjcgMC4zMDA2NzcgNC43NTU4NyAwLjUwMzQ1MyA1LjA0Nzk0IDAuNzY2NTYxQyA1LjM0IDEuMDI5NjcgNS41NzcxOCAxLjM0NzkyIDUuNzQ1ODIgMS43MDMwMUMgNS45MTQ0NiAyLjA1ODEgNi4wMTEyNCAyLjQ0MzAzIDYuMDMwNTkgMi44MzU2NUwgNi4wMzA1OSAyLjgzNTY1WiIgaWQ9InBhdGg3X2ZpbGwiLz4mI3hhOzxwYXRoIGQ9Ik0gMTguNjk2MiA3LjEyMjM4QyAxMC42ODM2IDcuMTIyMzggMy42NDEzMSA0LjI0NjcyIDAgMEMgMS40MTI4NCAzLjgyMDQxIDMuOTYyMTUgNy4xMTYzIDcuMzA0NzkgOS40NDQwNEMgMTAuNjQ3NCAxMS43NzE4IDE0LjYyMyAxMy4wMTk2IDE4LjY5NjIgMTMuMDE5NkMgMjIuNzY5NSAxMy4wMTk2IDI2Ljc0NSAxMS43NzE4IDMwLjA4NzcgOS40NDQwNEMgMzMuNDMwMyA3LjExNjMgMzUuOTc5NiAzLjgyMDQxIDM3LjM5MjUgNC4wNDg2ZS0xM0MgMzMuNzYwMSA0LjI0NjcyIDI2Ljc0NDUgNy4xMjIzOCAxOC42OTYyIDcuMTIyMzhaIiBpZD0icGF0aDhfZmlsbCIvPiYjeGE7PHBhdGggZD0iTSAxOC42OTYyIDUuODk3MjVDIDI2LjcwODkgNS44OTcyNSAzMy43NTEyIDguNzcyOTEgMzcuMzkyNSAxMy4wMTk2QyAzNS45Nzk2IDkuMTk5MjIgMzMuNDMwMyA1LjkwMzMzIDMwLjA4NzcgMy41NzU1OUMgMjYuNzQ1IDEuMjQ3ODUgMjIuNzY5NSA0LjA0ODZlLTEzIDE4LjY5NjIgMEMgMTQuNjIzIDQuMDQ4NmUtMTMgMTAuNjQ3NCAxLjI0Nzg1IDcuMzA0NzkgMy41NzU1OUMgMy45NjIxNSA1LjkwMzMzIDEuNDEyODQgOS4xOTkyMiAwIDEzLjAxOTZDIDMuNjQxMzEgOC43NjQwMSAxMC42NDggNS44OTcyNSAxOC42OTYyIDUuODk3MjVaIiBpZD0icGF0aDlfZmlsbCIvPiYjeGE7PHBhdGggZD0iTSA3LjU5NTc2IDMuNTY2NTZDIDcuNjQyNzYgNC4zMTk5MiA3LjQ2NDQyIDUuMDcwMjIgNy4wODM0NyA1LjcyMTg2QyA2LjcwMjUxIDYuMzczNSA2LjEzNjE5IDYuODk2OTggNS40NTY2NiA3LjIyNTYxQyA0Ljc3NzEzIDcuNTU0MjQgNC4wMTUxNSA3LjY3MzE0IDMuMjY3ODEgNy41NjcxNkMgMi41MjA0NiA3LjQ2MTE3IDEuODIxNTggNy4xMzUxMSAxLjI2MDIxIDYuNjMwNTFDIDAuNjk4ODM5IDYuMTI1OTEgMC4zMDAzOTQgNS40NjU2MSAwLjExNTYzNyA0LjczMzc1QyAtMC4wNjkxMTkxIDQuMDAxODggLTAuMDMxODIxOSAzLjIzMTU5IDAuMjIyNzc3IDIuNTIwOTlDIDAuNDc3Mzc2IDEuODEwNCAwLjkzNzc1IDEuMTkxNjkgMS41NDUyNCAwLjc0MzY4NUMgMi4xNTI3NCAwLjI5NTY3OCAyLjg3OTg1IDAuMDM4NjU5NSAzLjYzMzk0IDAuMDA1Mzc1ODlDIDQuMTI3OTMgLTAuMDIxMDQ3MSA0LjYyMjI5IDAuMDUwMTE3MyA1LjA4ODc4IDAuMjE0ODAzQyA1LjU1NTI2IDAuMzc5NDkgNS45ODQ3MyAwLjYzNDQ3IDYuMzUyNjQgMC45NjUxNzlDIDYuNzIwNTUgMS4yOTU4OSA3LjAxOTcxIDEuNjk1ODQgNy4yMzMgMi4xNDIyQyA3LjQ0NjMgMi41ODg1NSA3LjU2OTU3IDMuMDcyNTYgNy41OTU3NiAzLjU2NjU2TCA3LjU5NTc2IDMuNTY2NTZaIiBpZD0icGF0aDEwX2ZpbGwiLz4mI3hhOzxwYXRoIGQ9Ik0gMi4yNTA2MSA0LjM3OTQzQyAxLjgxODg2IDQuMzkxMzUgMS4zOTMyMiA0LjI3NTM1IDEuMDI3MjIgNC4wNDYwMkMgMC42NjEyMjQgMy44MTY2OCAwLjM3MTIwNiAzLjQ4NDI0IDAuMTkzNjQxIDMuMDkwNTJDIDAuMDE2MDc2MiAyLjY5Njc5IC0wLjA0MTEwNzggMi4yNTkzNSAwLjAyOTI4MDQgMS44MzMyMUMgMC4wOTk2Njg2IDEuNDA3MDcgMC4yOTQ0ODYgMS4wMTEyNSAwLjU4OTIzMyAwLjY5NTU0MkMgMC44ODM5ODEgMC4zNzk4MyAxLjI2NTUgMC4xNTgzMTYgMS42ODU4MSAwLjA1ODg1NzdDIDIuMTA2MTEgLTAuMDQwNjAwNSAyLjU0NjQ0IC0wLjAxMzU2MjIgMi45NTE0MyAwLjEzNjU3MkMgMy4zNTY0MSAwLjI4NjcwNyAzLjcwNzk2IDAuNTUzMjM0IDMuOTYxODYgMC45MDI2MzZDIDQuMjE1NzcgMS4yNTIwNCA0LjM2MDcgMS42Njg3MiA0LjM3ODQyIDIuMTAwMjdDIDQuMzk1MjkgMi42ODM4IDQuMTgxMzEgMy4yNTA0NCAzLjc4MjkzIDMuNjc3MTVDIDMuMzg0NTUgNC4xMDM4NyAyLjgzMzkyIDQuMzU2MjMgMi4yNTA2MSA0LjM3OTQzWiIgaWQ9InBhdGgxMV9maWxsIi8+JiN4YTs8L2RlZnM+JiN4YTs8L3N2Zz4=;" vertex="1" parent="1">
          <mxGeometry x="640" y="205.00000000000003" width="35" height="40.57" as="geometry" />
        </mxCell>
        <mxCell id="NeGIg2A49nrBojpMStaA-31" style="edgeStyle=orthogonalEdgeStyle;rounded=0;orthogonalLoop=1;jettySize=auto;html=1;entryX=0.5;entryY=0;entryDx=0;entryDy=0;" edge="1" parent="1" source="NeGIg2A49nrBojpMStaA-15" target="NeGIg2A49nrBojpMStaA-14">
          <mxGeometry relative="1" as="geometry" />
        </mxCell>
        <mxCell id="NeGIg2A49nrBojpMStaA-15" value="" style="shape=image;verticalLabelPosition=bottom;labelBackgroundColor=default;verticalAlign=top;aspect=fixed;imageAspect=0;image=data:image/svg+xml,PHN2ZyB4bWxuczp4bGluaz0iaHR0cDovL3d3dy53My5vcmcvMTk5OS94bGluayIgeG1sbnM9Imh0dHA6Ly93d3cudzMub3JnLzIwMDAvc3ZnIiB2ZXJzaW9uPSIyLjAiIHZpZXdCb3g9IjAgMCA0NCA1MSIgaGVpZ2h0PSI1MSIgd2lkdGg9IjQ0Ij4mI3hhOzx0aXRsZT5Hcm91cC5zdmc8L3RpdGxlPiYjeGE7PGRlc2M+Q3JlYXRlZCB1c2luZyBGaWdtYSAwLjkwPC9kZXNjPiYjeGE7PGcgdHJhbnNmb3JtPSJ0cmFuc2xhdGUoLTE2NDAgLTI0NTMpIiBpZD0iQ2FudmFzIj4mI3hhOzxnIHN0eWxlPSJtaXgtYmxlbmQtbW9kZTpub3JtYWw7IiBpZD0iR3JvdXAiPiYjeGE7PGcgc3R5bGU9Im1peC1ibGVuZC1tb2RlOm5vcm1hbDsiIGlkPSJHcm91cCI+JiN4YTs8ZyBzdHlsZT0ibWl4LWJsZW5kLW1vZGU6bm9ybWFsOyIgaWQ9Ikdyb3VwIj4mI3hhOzxnIHN0eWxlPSJtaXgtYmxlbmQtbW9kZTpub3JtYWw7IiBpZD0iZyI+JiN4YTs8ZyBzdHlsZT0ibWl4LWJsZW5kLW1vZGU6bm9ybWFsOyIgaWQ9InBhdGgiPiYjeGE7PGcgc3R5bGU9Im1peC1ibGVuZC1tb2RlOm5vcm1hbDsiIGlkPSJwYXRoOSBmaWxsIj4mI3hhOzx1c2Ugc3R5bGU9Im1peC1ibGVuZC1tb2RlOm5vcm1hbDsiIGZpbGw9IiM0RTRFNEUiIHRyYW5zZm9ybT0idHJhbnNsYXRlKDE2NDAuNTQgMjQ3NC4zNikiIHhsaW5rOmhyZWY9IiNwYXRoMF9maWxsIi8+JiN4YTs8L2c+JiN4YTs8L2c+JiN4YTs8ZyBzdHlsZT0ibWl4LWJsZW5kLW1vZGU6bm9ybWFsOyIgaWQ9InBhdGgiPiYjeGE7PGcgc3R5bGU9Im1peC1ibGVuZC1tb2RlOm5vcm1hbDsiIGlkPSJwYXRoMTAgZmlsbCI+JiN4YTs8dXNlIHN0eWxlPSJtaXgtYmxlbmQtbW9kZTpub3JtYWw7IiBmaWxsPSIjNEU0RTRFIiB0cmFuc2Zvcm09InRyYW5zbGF0ZSgxNjQ1LjY4IDI0NzQuMzcpIiB4bGluazpocmVmPSIjcGF0aDFfZmlsbCIvPiYjeGE7PC9nPiYjeGE7PC9nPiYjeGE7PGcgc3R5bGU9Im1peC1ibGVuZC1tb2RlOm5vcm1hbDsiIGlkPSJwYXRoIj4mI3hhOzxnIHN0eWxlPSJtaXgtYmxlbmQtbW9kZTpub3JtYWw7IiBpZD0icGF0aDExIGZpbGwiPiYjeGE7PHVzZSBzdHlsZT0ibWl4LWJsZW5kLW1vZGU6bm9ybWFsOyIgZmlsbD0iIzRFNEU0RSIgdHJhbnNmb3JtPSJ0cmFuc2xhdGUoMTY1My4zOSAyNDc0LjI2KSIgeGxpbms6aHJlZj0iI3BhdGgyX2ZpbGwiLz4mI3hhOzwvZz4mI3hhOzwvZz4mI3hhOzxnIHN0eWxlPSJtaXgtYmxlbmQtbW9kZTpub3JtYWw7IiBpZD0icGF0aCI+JiN4YTs8ZyBzdHlsZT0ibWl4LWJsZW5kLW1vZGU6bm9ybWFsOyIgaWQ9InBhdGgxMiBmaWxsIj4mI3hhOzx1c2Ugc3R5bGU9Im1peC1ibGVuZC1tb2RlOm5vcm1hbDsiIGZpbGw9IiM0RTRFNEUiIHRyYW5zZm9ybT0idHJhbnNsYXRlKDE2NjAuNDMgMjQ3NC4zOSkiIHhsaW5rOmhyZWY9IiNwYXRoM19maWxsIi8+JiN4YTs8L2c+JiN4YTs8L2c+JiN4YTs8ZyBzdHlsZT0ibWl4LWJsZW5kLW1vZGU6bm9ybWFsOyIgaWQ9InBhdGgiPiYjeGE7PGcgc3R5bGU9Im1peC1ibGVuZC1tb2RlOm5vcm1hbDsiIGlkPSJwYXRoMTMgZmlsbCI+JiN4YTs8dXNlIHN0eWxlPSJtaXgtYmxlbmQtbW9kZTpub3JtYWw7IiBmaWxsPSIjNEU0RTRFIiB0cmFuc2Zvcm09InRyYW5zbGF0ZSgxNjY3LjU1IDI0NzIuNTQpIiB4bGluazpocmVmPSIjcGF0aDRfZmlsbCIvPiYjeGE7PC9nPiYjeGE7PC9nPiYjeGE7PGcgc3R5bGU9Im1peC1ibGVuZC1tb2RlOm5vcm1hbDsiIGlkPSJwYXRoIj4mI3hhOzxnIHN0eWxlPSJtaXgtYmxlbmQtbW9kZTpub3JtYWw7IiBpZD0icGF0aDE0IGZpbGwiPiYjeGE7PHVzZSBzdHlsZT0ibWl4LWJsZW5kLW1vZGU6bm9ybWFsOyIgZmlsbD0iIzRFNEU0RSIgdHJhbnNmb3JtPSJ0cmFuc2xhdGUoMTY3Mi40NyAyNDc0LjI5KSIgeGxpbms6aHJlZj0iI3BhdGg1X2ZpbGwiLz4mI3hhOzwvZz4mI3hhOzwvZz4mI3hhOzxnIHN0eWxlPSJtaXgtYmxlbmQtbW9kZTpub3JtYWw7IiBpZD0icGF0aCI+JiN4YTs8ZyBzdHlsZT0ibWl4LWJsZW5kLW1vZGU6bm9ybWFsOyIgaWQ9InBhdGgxNSBmaWxsIj4mI3hhOzx1c2Ugc3R5bGU9Im1peC1ibGVuZC1tb2RlOm5vcm1hbDsiIGZpbGw9IiM0RTRFNEUiIHRyYW5zZm9ybT0idHJhbnNsYXRlKDE2NzkuOTggMjQ3NC4yNCkiIHhsaW5rOmhyZWY9IiNwYXRoNl9maWxsIi8+JiN4YTs8L2c+JiN4YTs8L2c+JiN4YTs8L2c+JiN4YTs8L2c+JiN4YTs8ZyBzdHlsZT0ibWl4LWJsZW5kLW1vZGU6bm9ybWFsOyIgaWQ9ImciPiYjeGE7PGcgc3R5bGU9Im1peC1ibGVuZC1tb2RlOm5vcm1hbDsiIGlkPSJwYXRoIj4mI3hhOzxnIHN0eWxlPSJtaXgtYmxlbmQtbW9kZTpub3JtYWw7IiBpZD0icGF0aDE2IGZpbGwiPiYjeGE7PHVzZSBzdHlsZT0ibWl4LWJsZW5kLW1vZGU6bm9ybWFsOyIgZmlsbD0iIzc2NzY3NyIgdHJhbnNmb3JtPSJ0cmFuc2xhdGUoMTY3My40OCAyNDUzLjY5KSIgeGxpbms6aHJlZj0iI3BhdGg3X2ZpbGwiLz4mI3hhOzwvZz4mI3hhOzwvZz4mI3hhOzxnIHN0eWxlPSJtaXgtYmxlbmQtbW9kZTpub3JtYWw7IiBpZD0icGF0aCI+JiN4YTs8ZyBzdHlsZT0ibWl4LWJsZW5kLW1vZGU6bm9ybWFsOyIgaWQ9InBhdGgxNyBmaWxsIj4mI3hhOzx1c2Ugc3R5bGU9Im1peC1ibGVuZC1tb2RlOm5vcm1hbDsiIGZpbGw9IiNGMzc3MjYiIHRyYW5zZm9ybT0idHJhbnNsYXRlKDE2NDMuMjEgMjQ4NC4yNykiIHhsaW5rOmhyZWY9IiNwYXRoOF9maWxsIi8+JiN4YTs8L2c+JiN4YTs8L2c+JiN4YTs8ZyBzdHlsZT0ibWl4LWJsZW5kLW1vZGU6bm9ybWFsOyIgaWQ9InBhdGgiPiYjeGE7PGcgc3R5bGU9Im1peC1ibGVuZC1tb2RlOm5vcm1hbDsiIGlkPSJwYXRoMTggZmlsbCI+JiN4YTs8dXNlIHN0eWxlPSJtaXgtYmxlbmQtbW9kZTpub3JtYWw7IiBmaWxsPSIjRjM3NzI2IiB0cmFuc2Zvcm09InRyYW5zbGF0ZSgxNjQzLjIxIDI0NTcuODgpIiB4bGluazpocmVmPSIjcGF0aDlfZmlsbCIvPiYjeGE7PC9nPiYjeGE7PC9nPiYjeGE7PGcgc3R5bGU9Im1peC1ibGVuZC1tb2RlOm5vcm1hbDsiIGlkPSJwYXRoIj4mI3hhOzxnIHN0eWxlPSJtaXgtYmxlbmQtbW9kZTpub3JtYWw7IiBpZD0icGF0aDE5IGZpbGwiPiYjeGE7PHVzZSBzdHlsZT0ibWl4LWJsZW5kLW1vZGU6bm9ybWFsOyIgZmlsbD0iIzlFOUU5RSIgdHJhbnNmb3JtPSJ0cmFuc2xhdGUoMTY0My4yOCAyNDk2LjA5KSIgeGxpbms6aHJlZj0iI3BhdGgxMF9maWxsIi8+JiN4YTs8L2c+JiN4YTs8L2c+JiN4YTs8ZyBzdHlsZT0ibWl4LWJsZW5kLW1vZGU6bm9ybWFsOyIgaWQ9InBhdGgiPiYjeGE7PGcgc3R5bGU9Im1peC1ibGVuZC1tb2RlOm5vcm1hbDsiIGlkPSJwYXRoMjAgZmlsbCI+JiN4YTs8dXNlIHN0eWxlPSJtaXgtYmxlbmQtbW9kZTpub3JtYWw7IiBmaWxsPSIjNjE2MjYyIiB0cmFuc2Zvcm09InRyYW5zbGF0ZSgxNjQxLjg3IDI0NTguNDMpIiB4bGluazpocmVmPSIjcGF0aDExX2ZpbGwiLz4mI3hhOzwvZz4mI3hhOzwvZz4mI3hhOzwvZz4mI3hhOzwvZz4mI3hhOzwvZz4mI3hhOzwvZz4mI3hhOzxkZWZzPiYjeGE7PHBhdGggZD0iTSAxLjc0NDk4IDUuNDc1MzNDIDEuNzQ0OTggNy4wMzMzNSAxLjYyMDM0IDcuNTQwODIgMS4yOTk4MyA3LjkxNDc0QyAwLjk0MzExOSA4LjIzNTk1IDAuNDgwMDI0IDguNDEzNTggMCA4LjQxMzMxTCAwLjEyNDY0MiA5LjMwMzZDIDAuODY4ODQgOS4zMTM2NiAxLjU5MDk1IDkuMDUwNzggMi4xNTQ1MiA4LjU2NDY2QyAyLjQ1Nzc1IDguMTk0ODcgMi42ODM0IDcuNzY3ODEgMi44MTggNy4zMDg5M0MgMi45NTI2MSA2Ljg1MDA1IDIuOTkzNDEgNi4zNjg3NiAyLjkzNzk4IDUuODkzNzdMIDIuOTM3OTggMEwgMS43NDQ5OCAwTCAxLjc0NDk4IDUuNDM5NzJMIDEuNzQ0OTggNS40NzUzM1oiIGlkPSJwYXRoMF9maWxsIi8+JiN4YTs8cGF0aCBkPSJNIDUuNTAyMDQgNC43NjMwOUMgNS41MDIwNCA1LjQzMDgxIDUuNTAyMDQgNi4wMjczMSA1LjU1NTQ1IDYuNTQzNjhMIDQuNDk2IDYuNTQzNjhMIDQuNDI0NzggNS40ODQyM0MgNC4yMDMxOCA1Ljg1OTA5IDMuODg2MjcgNi4xNjg1OCAzLjUwNjI4IDYuMzgxMjVDIDMuMTI2MjggNi41OTM5MiAyLjY5Njc1IDYuNzAyMTkgMi4yNjEzNSA2LjY5NTAzQyAxLjIyODYxIDYuNjk1MDMgMCA2LjEzNDE1IDAgMy44NDYwOEwgMCAwLjA0NDUxNDlMIDEuMTkzIDAuMDQ0NTE0OUwgMS4xOTMgMy42MDU3QyAxLjE5MyA0Ljg0MzIyIDEuNTc1ODMgNS42NzExOSAyLjY1MzA5IDUuNjcxMTlDIDIuODc0NzIgNS42NzM1OCAzLjA5NDU5IDUuNjMxNjggMy4yOTk4MiA1LjU0Nzk2QyAzLjUwNTA1IDUuNDY0MjQgMy42OTE0OSA1LjM0MDM5IDMuODQ4MjIgNS4xODM2NkMgNC4wMDQ5NCA1LjAyNjk0IDQuMTI4OCA0Ljg0MDQ5IDQuMjEyNTIgNC42MzUyN0MgNC4yOTYyMyA0LjQzMDA0IDQuMzM4MTMgNC4yMTAxNiA0LjMzNTc1IDMuOTg4NTNMIDQuMzM1NzUgMEwgNS41Mjg3NCAwTCA1LjUyODc0IDQuNzI3NDhMIDUuNTAyMDQgNC43NjMwOVoiIGlkPSJwYXRoMV9maWxsIi8+JiN4YTs8cGF0aCBkPSJNIDAuMDUzNDE3OCAyLjI3MjY0QyAwLjA1MzQxNzggMS40NDQ2NiAwLjA1MzQxNzggMC43NjgwMzYgMCAwLjE1MzczMUwgMS4wNjgzNiAwLjE1MzczMUwgMS4xMjE3NyAxLjI2NjZDIDEuMzU5OCAwLjg2NDUzNSAxLjcwMjQ3IDAuNTM0NTk0IDIuMTEzMjUgMC4zMTE5NTRDIDIuNTI0MDQgMC4wODkzMTQ1IDIuOTg3NTQgLTAuMDE3Njc4NiAzLjQ1NDM1IDAuMDAyMzgwOTVDIDUuMDM5MDggMC4wMDIzODA5NSA2LjIzMjA4IDEuMzI4OTIgNi4yMzIwOCAzLjMwNTM4QyA2LjIzMjA4IDUuNjM3OTYgNC43OTg3IDYuNzk1MzUgMy4yNDk1OCA2Ljc5NTM1QyAyLjg1MzA5IDYuODEzMDQgMi40NTg3NCA2LjcyODEgMi4xMDQ2OSA2LjU0ODc0QyAxLjc1MDY0IDYuMzY5MzcgMS40NDg4OCA2LjEwMTY2IDEuMjI4NjEgNS43NzE1MUwgMS4yMjg2MSA1Ljc3MTUxTCAxLjIyODYxIDkuMzMyNjlMIDAuMDUzNDE3OCA5LjMzMjY5TCAwLjA1MzQxNzggMi4yOTkzNUwgMC4wNTM0MTc4IDIuMjcyNjRaTSAxLjIyODYxIDQuMDA4NzJDIDEuMjMxODQgNC4xNzAyNiAxLjI0OTcyIDQuMzMxMTcgMS4yODIwMyA0LjQ4OTQ4QyAxLjM4MzA0IDQuODg0NzkgMS42MTI5OSA1LjIzNTEzIDEuOTM1NDggNS40ODUwNkMgMi4yNTc5OCA1LjczNSAyLjY1NDYxIDUuODcwMjYgMy4wNjI2MiA1Ljg2OTQ0QyA0LjMxNzk0IDUuODY5NDQgNS4wNTY4OSA0Ljg0NTYgNS4wNTY4OSAzLjM1ODhDIDUuMDU2ODkgMi4wNTg5NyA0LjM2MjQ2IDAuOTQ2MDk2IDMuMTA3MTQgMC45NDYwOTZDIDIuNjEwMzYgMC45ODY3NzcgMi4xNDU0OCAxLjIwNzI2IDEuNzk5NjUgMS41NjYyQyAxLjQ1MzgyIDEuOTI1MTQgMS4yNTA3OSAyLjM5NzkgMS4yMjg2MSAyLjg5NTg1TCAxLjIyODYxIDQuMDA4NzJaIiBpZD0icGF0aDJfZmlsbCIvPiYjeGE7PHBhdGggZD0iTSAxLjMxNzY0IDAuMDE3ODA1OUwgMi43NTEwMiAzLjg1NDk5QyAyLjkwMjM3IDQuMjgyMzMgMy4wNjI2MiA0Ljc5ODcgMy4xNjk0NiA1LjE4MTUzQyAzLjI5NDEgNC43ODk4IDMuNDI3NjQgNC4yOTEyMyAzLjU4NzkgMy44MjgyOEwgNC44ODc3MyAwLjAxNzgwNTlMIDYuMTQzMDUgMC4wMTc4MDU5TCA0LjM2MjQ2IDQuNjQ3MzVDIDMuNDcyMTYgNi44NzMwOSAyLjkyOTA4IDguMDIxNTggMi4xMSA4LjcxNjAxQyAxLjY5NzQ1IDkuMDkyODMgMS4xOTQ0OCA5LjM1NjU4IDAuNjQ5OTE3IDkuNDgxNjZMIDAuMzU2MTE5IDguNDg0NTNDIDAuNzM2ODg2IDguMzU5NDIgMS4wOTAzOCA4LjE2MzA0IDEuMzk3NzcgNy45MDU4NEMgMS44MzIxIDcuNTUxODggMi4xNzY3OCA3LjEwMDQ0IDIuNDAzOCA2LjU4ODJDIDIuNDUyMzkgNi40OTk0OSAyLjQ4NTUxIDYuNDAzMTQgMi41MDE3MyA2LjMwMzNDIDIuNDkxNjEgNi4xOTU4NiAyLjQ2NDU3IDYuMDkwNyAyLjQyMTYxIDUuOTkxN0wgMCAwTCAxLjI5OTgzIDBMIDEuMzE3NjQgMC4wMTc4MDU5WiIgaWQ9InBhdGgzX2ZpbGwiLz4mI3hhOzxwYXRoIGQ9Ik0gMi4xOTAxMyAwTCAyLjE5MDEzIDEuODY5NjJMIDMuODk5NSAxLjg2OTYyTCAzLjg5OTUgMi43NTk5MkwgMi4xOTAxMyAyLjc1OTkyTCAyLjE5MDEzIDYuMjY3NjlDIDIuMTkwMTMgNy4wNjg5NiAyLjQyMTYxIDcuNTMxOTEgMy4wODA0MyA3LjUzMTkxQyAzLjMxNDQyIDcuNTM1NzQgMy41NDc4OSA3LjUwODggMy43NzQ4NiA3LjQ1MTc5TCAzLjgyODI4IDguMzQyMDhDIDMuNDg3OTQgOC40NTk5OSAzLjEyODgxIDguNTE0MzEgMi43Njg4MiA4LjUwMjM0QyAyLjUzMDQyIDguNTE3MjYgMi4yOTE2MSA4LjQ4MDQzIDIuMDY4NzggOC4zOTQzN0MgMS44NDU5NSA4LjMwODMxIDEuNjQ0MzggOC4xNzUwNiAxLjQ3Nzg5IDguMDAzNzdDIDEuMTE1MjUgNy41MTg3MyAwLjk0OTgyNiA2LjkxNDMxIDEuMDE0OTQgNi4zMTIyMUwgMS4wMTQ5NCAyLjc1MTAyTCAwIDIuNzUxMDJMIDAgMS44NjA3MkwgMS4wMzI3NCAxLjg2MDcyTCAxLjAzMjc0IDAuMjc1OTkyTCAyLjE5MDEzIDBaIiBpZD0icGF0aDRfZmlsbCIvPiYjeGE7PHBhdGggZD0iTSAxLjE3NzE2IDMuNTc4OTlDIDEuMTUzIDMuODgwOTMgMS4xOTQ2OCA0LjE4NDUxIDEuMjk5MzMgNC40Njg3NkMgMS40MDM5OCA0Ljc1MzAxIDEuNTY5MSA1LjAxMTE0IDEuNzgzMjkgNS4yMjUzMkMgMS45OTc0NyA1LjQzOTUxIDIuMjU1NiA1LjYwNDYzIDIuNTM5ODUgNS43MDkyOEMgMi44MjQxIDUuODEzOTMgMy4xMjc2OCA1Ljg1NTYxIDMuNDI5NjIgNS44MzE0NUMgNC4wNDAzMyA1Ljg0NTExIDQuNjQ3MDYgNS43Mjk4MyA1LjIxMDIxIDUuNDkzMTNMIDUuNDE0OTggNi4zODM0M0MgNC43MjM5MyA2LjY2ODA5IDMuOTgwODUgNi44MDQ1OCAzLjIzMzc1IDYuNzg0MDZDIDIuNzk4MjEgNi44MTM4OCAyLjM2MTM4IDYuNzQ5MTQgMS45NTMyMiA2LjU5NDI3QyAxLjU0NTA1IDYuNDM5NDEgMS4xNzUyMiA2LjE5ODA5IDAuODY5MDcxIDUuODg2ODhDIDAuNTYyOTI4IDUuNTc1NjYgMC4zMjc3MjMgNS4yMDE5IDAuMTc5NTkxIDQuNzkxMjVDIDAuMDMxNDU4NCA0LjM4MDU5IC0wLjAyNjA5NjIgMy45NDI3NiAwLjAxMDg3NDggMy41MDc3N0MgMC4wMTA4NzQ4IDEuNTQ5MTIgMS4xNzcxNiAwIDMuMDgyNCAwQyA1LjIxOTExIDAgNS43NTMyOSAxLjg2OTYyIDUuNzUzMjkgMy4wNjI2MkMgNS43NjQ3MSAzLjI0NjQ0IDUuNzY0NzEgMy40MzA3OSA1Ljc1MzI5IDMuNjE0NjFMIDEuMTUwNDYgMy42MTQ2MUwgMS4xNzcxNiAzLjU3ODk5Wk0gNC42NjcxMyAyLjY4ODdDIDQuNzAxNDkgMi40NTA2NyA0LjY4NDQzIDIuMjA4MDUgNC42MTcwOSAxLjk3NzE4QyA0LjU0OTc2IDEuNzQ2MzEgNC40MzM3MiAxLjUzMjU1IDQuMjc2OCAxLjM1MDMxQyA0LjExOTg3IDEuMTY4MDggMy45MjU3MSAxLjAyMTYgMy43MDczOSAwLjkyMDc0NEMgMy40ODkwNyAwLjgxOTg5IDMuMjUxNjYgMC43NjcwMDYgMy4wMTExOCAwLjc2NTY1NkMgMi41MjIwMSAwLjgwMTA2NCAyLjA2MzcxIDEuMDE3ODggMS43MjYwOSAxLjM3MzYyQyAxLjM4ODQ3IDEuNzI5MzUgMS4xOTU4OCAyLjE5ODM1IDEuMTg2MDcgMi42ODg3TCA0LjY2NzEzIDIuNjg4N1oiIGlkPSJwYXRoNV9maWxsIi8+JiN4YTs8cGF0aCBkPSJNIDAuMDUzNDE3OCAyLjE5MjI4QyAwLjA1MzQxNzggMS40MjY2MyAwLjA1MzQxNzggMC43Njc4MDYgMCAwLjE2MjQwNEwgMS4wNjgzNiAwLjE2MjQwNEwgMS4wNjgzNiAxLjQzNTUzTCAxLjEyMTc3IDEuNDM1NTNDIDEuMjMzOTEgMS4wNDI1OSAxLjQ2NTYgMC42OTQzMTQgMS43ODQ2OCAwLjQzOTA0OUMgMi4xMDM3NiAwLjE4Mzc4MyAyLjQ5NDQgMC4wMzQxOTYgMi45MDIzNyAwLjAxMTA1MzhDIDMuMDE0NjYgLTAuMDAzNjg0NTkgMy4xMjgzOSAtMC4wMDM2ODQ1OSAzLjI0MDY4IDAuMDExMDUzOEwgMy4yNDA2OCAxLjEyMzkzQyAzLjEwNDYyIDEuMTA4MTcgMi45NjcyIDEuMTA4MTcgMi44MzExNCAxLjEyMzkzQyAyLjQyNyAxLjEzOTU4IDIuMDQyMzcgMS4zMDE4MiAxLjc0OTEgMS41ODAzNUMgMS40NTU4MyAxLjg1ODg3IDEuMjczOTggMi4yMzQ2MiAxLjIzNzUxIDIuNjM3NDNDIDEuMjA0MjIgMi44MTk2IDEuMTg2MzUgMy4wMDQyNSAxLjE4NDEgMy4xODk0MUwgMS4xODQxIDYuNjUyNjdMIDAuMDA4OTAyOTcgNi42NTI2N0wgMC4wMDg5MDI5NyAyLjIwMTE4TCAwLjA1MzQxNzggMi4xOTIyOFoiIGlkPSJwYXRoNl9maWxsIi8+JiN4YTs8cGF0aCBkPSJNIDYuMDMwNTkgMi44MzU2NUMgNi4wNjcxNSAzLjQzMzc2IDUuOTI0ODUgNC4wMjkyMSA1LjYyMTggNC41NDYxNUMgNS4zMTg3NSA1LjA2MzEgNC44Njg2OSA1LjQ3ODEzIDQuMzI4OTMgNS43MzgzOUMgMy43ODkxNyA1Ljk5ODY0IDMuMTg0MTYgNi4wOTIzMyAyLjU5MDk3IDYuMDA3NTNDIDEuOTk3NzggNS45MjI3MiAxLjQ0MzI2IDUuNjYzMjYgMC45OTgwNDggNS4yNjIxOUMgMC41NTI4MzcgNC44NjExMyAwLjIzNzA5IDQuMzM2NjEgMC4wOTEwMzA3IDMuNzU1NDZDIC0wLjA1NTAyODcgMy4xNzQzMSAtMC4wMjQ3ODkxIDIuNTYyODMgMC4xNzc4OTcgMS45OTg5M0MgMC4zODA1ODMgMS40MzUwMyAwLjc0NjU0MSAwLjk0NDIyMSAxLjIyOTE1IDAuNTg5MDM3QyAxLjcxMTc2IDAuMjMzODUzIDIuMjg5MTggMC4wMzAzNjg2IDIuODg3ODQgMC4wMDQ1MDU0M0MgMy4yODAzNSAtMC4wMTcwOTMyIDMuNjczMjYgMC4wMzkxMTQ0IDQuMDQzOTYgMC4xNjk4OTZDIDQuNDE0NjcgMC4zMDA2NzcgNC43NTU4NyAwLjUwMzQ1MyA1LjA0Nzk0IDAuNzY2NTYxQyA1LjM0IDEuMDI5NjcgNS41NzcxOCAxLjM0NzkyIDUuNzQ1ODIgMS43MDMwMUMgNS45MTQ0NiAyLjA1ODEgNi4wMTEyNCAyLjQ0MzAzIDYuMDMwNTkgMi44MzU2NUwgNi4wMzA1OSAyLjgzNTY1WiIgaWQ9InBhdGg3X2ZpbGwiLz4mI3hhOzxwYXRoIGQ9Ik0gMTguNjk2MiA3LjEyMjM4QyAxMC42ODM2IDcuMTIyMzggMy42NDEzMSA0LjI0NjcyIDAgMEMgMS40MTI4NCAzLjgyMDQxIDMuOTYyMTUgNy4xMTYzIDcuMzA0NzkgOS40NDQwNEMgMTAuNjQ3NCAxMS43NzE4IDE0LjYyMyAxMy4wMTk2IDE4LjY5NjIgMTMuMDE5NkMgMjIuNzY5NSAxMy4wMTk2IDI2Ljc0NSAxMS43NzE4IDMwLjA4NzcgOS40NDQwNEMgMzMuNDMwMyA3LjExNjMgMzUuOTc5NiAzLjgyMDQxIDM3LjM5MjUgNC4wNDg2ZS0xM0MgMzMuNzYwMSA0LjI0NjcyIDI2Ljc0NDUgNy4xMjIzOCAxOC42OTYyIDcuMTIyMzhaIiBpZD0icGF0aDhfZmlsbCIvPiYjeGE7PHBhdGggZD0iTSAxOC42OTYyIDUuODk3MjVDIDI2LjcwODkgNS44OTcyNSAzMy43NTEyIDguNzcyOTEgMzcuMzkyNSAxMy4wMTk2QyAzNS45Nzk2IDkuMTk5MjIgMzMuNDMwMyA1LjkwMzMzIDMwLjA4NzcgMy41NzU1OUMgMjYuNzQ1IDEuMjQ3ODUgMjIuNzY5NSA0LjA0ODZlLTEzIDE4LjY5NjIgMEMgMTQuNjIzIDQuMDQ4NmUtMTMgMTAuNjQ3NCAxLjI0Nzg1IDcuMzA0NzkgMy41NzU1OUMgMy45NjIxNSA1LjkwMzMzIDEuNDEyODQgOS4xOTkyMiAwIDEzLjAxOTZDIDMuNjQxMzEgOC43NjQwMSAxMC42NDggNS44OTcyNSAxOC42OTYyIDUuODk3MjVaIiBpZD0icGF0aDlfZmlsbCIvPiYjeGE7PHBhdGggZD0iTSA3LjU5NTc2IDMuNTY2NTZDIDcuNjQyNzYgNC4zMTk5MiA3LjQ2NDQyIDUuMDcwMjIgNy4wODM0NyA1LjcyMTg2QyA2LjcwMjUxIDYuMzczNSA2LjEzNjE5IDYuODk2OTggNS40NTY2NiA3LjIyNTYxQyA0Ljc3NzEzIDcuNTU0MjQgNC4wMTUxNSA3LjY3MzE0IDMuMjY3ODEgNy41NjcxNkMgMi41MjA0NiA3LjQ2MTE3IDEuODIxNTggNy4xMzUxMSAxLjI2MDIxIDYuNjMwNTFDIDAuNjk4ODM5IDYuMTI1OTEgMC4zMDAzOTQgNS40NjU2MSAwLjExNTYzNyA0LjczMzc1QyAtMC4wNjkxMTkxIDQuMDAxODggLTAuMDMxODIxOSAzLjIzMTU5IDAuMjIyNzc3IDIuNTIwOTlDIDAuNDc3Mzc2IDEuODEwNCAwLjkzNzc1IDEuMTkxNjkgMS41NDUyNCAwLjc0MzY4NUMgMi4xNTI3NCAwLjI5NTY3OCAyLjg3OTg1IDAuMDM4NjU5NSAzLjYzMzk0IDAuMDA1Mzc1ODlDIDQuMTI3OTMgLTAuMDIxMDQ3MSA0LjYyMjI5IDAuMDUwMTE3MyA1LjA4ODc4IDAuMjE0ODAzQyA1LjU1NTI2IDAuMzc5NDkgNS45ODQ3MyAwLjYzNDQ3IDYuMzUyNjQgMC45NjUxNzlDIDYuNzIwNTUgMS4yOTU4OSA3LjAxOTcxIDEuNjk1ODQgNy4yMzMgMi4xNDIyQyA3LjQ0NjMgMi41ODg1NSA3LjU2OTU3IDMuMDcyNTYgNy41OTU3NiAzLjU2NjU2TCA3LjU5NTc2IDMuNTY2NTZaIiBpZD0icGF0aDEwX2ZpbGwiLz4mI3hhOzxwYXRoIGQ9Ik0gMi4yNTA2MSA0LjM3OTQzQyAxLjgxODg2IDQuMzkxMzUgMS4zOTMyMiA0LjI3NTM1IDEuMDI3MjIgNC4wNDYwMkMgMC42NjEyMjQgMy44MTY2OCAwLjM3MTIwNiAzLjQ4NDI0IDAuMTkzNjQxIDMuMDkwNTJDIDAuMDE2MDc2MiAyLjY5Njc5IC0wLjA0MTEwNzggMi4yNTkzNSAwLjAyOTI4MDQgMS44MzMyMUMgMC4wOTk2Njg2IDEuNDA3MDcgMC4yOTQ0ODYgMS4wMTEyNSAwLjU4OTIzMyAwLjY5NTU0MkMgMC44ODM5ODEgMC4zNzk4MyAxLjI2NTUgMC4xNTgzMTYgMS42ODU4MSAwLjA1ODg1NzdDIDIuMTA2MTEgLTAuMDQwNjAwNSAyLjU0NjQ0IC0wLjAxMzU2MjIgMi45NTE0MyAwLjEzNjU3MkMgMy4zNTY0MSAwLjI4NjcwNyAzLjcwNzk2IDAuNTUzMjM0IDMuOTYxODYgMC45MDI2MzZDIDQuMjE1NzcgMS4yNTIwNCA0LjM2MDcgMS42Njg3MiA0LjM3ODQyIDIuMTAwMjdDIDQuMzk1MjkgMi42ODM4IDQuMTgxMzEgMy4yNTA0NCAzLjc4MjkzIDMuNjc3MTVDIDMuMzg0NTUgNC4xMDM4NyAyLjgzMzkyIDQuMzU2MjMgMi4yNTA2MSA0LjM3OTQzWiIgaWQ9InBhdGgxMV9maWxsIi8+JiN4YTs8L2RlZnM+JiN4YTs8L3N2Zz4=;" vertex="1" parent="1">
          <mxGeometry x="640" y="145.00000000000003" width="35" height="40.57" as="geometry" />
        </mxCell>
        <mxCell id="NeGIg2A49nrBojpMStaA-29" value="" style="group" vertex="1" connectable="0" parent="1">
          <mxGeometry x="720" y="210" width="70" height="65" as="geometry" />
        </mxCell>
        <mxCell id="NeGIg2A49nrBojpMStaA-5" value="" style="shape=image;verticalLabelPosition=bottom;labelBackgroundColor=default;verticalAlign=top;aspect=fixed;imageAspect=0;image=data:image/svg+xml,PHN2ZyB4bWxuczp4bGluaz0iaHR0cDovL3d3dy53My5vcmcvMTk5OS94bGluayIgeG1sbnM9Imh0dHA6Ly93d3cudzMub3JnLzIwMDAvc3ZnIiB3aWR0aD0iMjU2IiB2aWV3Qm94PSIwIDAgMjU2IDI1NiIgcHJlc2VydmVBc3BlY3RSYXRpbz0ieE1pZFlNaWQiIGhlaWdodD0iMjU2Ij48cmFkaWFsR3JhZGllbnQgcj0iMTIwLjExNTY5NyUiIGdyYWRpZW50VHJhbnNmb3JtPSJtYXRyaXgoLjgzMjUzMSAwIDAgLjgzMjUzMSAwIC4xNjc0NjkpIiBjeT0iOTkuOTk5OTk0JSIgY3g9Ii4wMDAwMTYlIiBpZD0iYSI+PHN0b3Agc3RvcC1jb2xvcj0iIzAwYzgxMiIgb2Zmc2V0PSIwIi8+PHN0b3Agc3RvcC1jb2xvcj0iIzAwNmUwMCIgb2Zmc2V0PSIxIi8+PC9yYWRpYWxHcmFkaWVudD48cmFkaWFsR3JhZGllbnQgcj0iMTIwLjExNTY5NyUiIGdyYWRpZW50VHJhbnNmb3JtPSJtYXRyaXgoMCAuODMyNTM0IC0uODMyNTMxIDAgLS4wMDAwMDMgLS4wMDAwMDQpIiBjeT0iLS4wMDAzODUlIiBjeD0iLjAwMDAwNiUiIGlkPSJiIj48c3RvcCBzdG9wLWNvbG9yPSIjNTZhZmZkIiBvZmZzZXQ9IjAiLz48c3RvcCBzdG9wLWNvbG9yPSIjMDRhM2ZmIiBvZmZzZXQ9IjEiLz48L3JhZGlhbEdyYWRpZW50PjxyYWRpYWxHcmFkaWVudCByPSIxMjAuMTE1Njk3JSIgZ3JhZGllbnRUcmFuc2Zvcm09Im1hdHJpeCgtLjgzMjUzMSAwIDAgLS44MzI1MzEgMS44MzI1MzEgMCkiIGN5PSIuMDAwMDA2JSIgY3g9Ijk5Ljk5OTk4NCUiIGlkPSJjIj48c3RvcCBzdG9wLWNvbG9yPSIjZGYxZjAwIiBvZmZzZXQ9IjAiLz48c3RvcCBzdG9wLWNvbG9yPSIjNTYwZDAwIiBvZmZzZXQ9IjEiLz48L3JhZGlhbEdyYWRpZW50PjxyYWRpYWxHcmFkaWVudCByPSIxMjAuMTE1Njk3JSIgZ3JhZGllbnRUcmFuc2Zvcm09Im1hdHJpeCgwIC0uODMyNTM2IC44MzI1MzEgMCAuMTY3NDYzIDEuODMyNTQzKSIgY3k9IjEwMC4wMDA2OTQlIiBjeD0iOTkuOTk5OTk0JSIgaWQ9ImQiPjxzdG9wIHN0b3AtY29sb3I9IiMwMGZmZmQiIG9mZnNldD0iMCIvPjxzdG9wIHN0b3AtY29sb3I9IiMwMGRhZmYiIG9mZnNldD0iMSIvPjwvcmFkaWFsR3JhZGllbnQ+PHJhZGlhbEdyYWRpZW50IHI9Ijk5Ljk5OTY0JSIgZ3JhZGllbnRUcmFuc2Zvcm09Im1hdHJpeCgxIDAgMCAxLjAwMDAwMzUyIDAgLS4wMDAwMDQpIiBjeT0iOTkuOTk5OTk0JSIgY3g9Ii4wMDAzNTUlIiBpZD0iZSI+PHN0b3Agc3RvcC1jb2xvcj0iIzAwODIwMCIgb2Zmc2V0PSIwIi8+PHN0b3Agc3RvcC1jb2xvcj0iIzAwNzUwMCIgb2Zmc2V0PSIxIi8+PC9yYWRpYWxHcmFkaWVudD48cmFkaWFsR3JhZGllbnQgcj0iOTkuOTk5OTA0JSIgZ3JhZGllbnRUcmFuc2Zvcm09Im1hdHJpeCgwIDEgLTEuMDAwMDAwMDMgMCAuMDAwMDAxIC4wMDAwMDEpIiBjeT0iLjAwMDA5MSUiIGN4PSIuMDAwMDA2JSIgaWQ9ImYiPjxzdG9wIHN0b3AtY29sb3I9IiMzMTY2ZDQiIG9mZnNldD0iMCIvPjxzdG9wIHN0b3AtY29sb3I9IiMxYTUwOWUiIG9mZnNldD0iMSIvPjwvcmFkaWFsR3JhZGllbnQ+PHJhZGlhbEdyYWRpZW50IHI9IjEwMC4wMDAzNSUiIGdyYWRpZW50VHJhbnNmb3JtPSJtYXRyaXgoLTEgMCAwIC0uOTk5OTk2NTQgMi4wMDAwMDggMCkiIGN5PSIuMDAwMDA2JSIgY3g9IjEwMC4wMDAzNTUlIiBpZD0iZyI+PHN0b3Agc3RvcC1jb2xvcj0iIzhlMTQwMCIgb2Zmc2V0PSIwIi8+PHN0b3Agc3RvcC1jb2xvcj0iIzRiMGIwMCIgb2Zmc2V0PSIxIi8+PC9yYWRpYWxHcmFkaWVudD48cmFkaWFsR3JhZGllbnQgcj0iOTkuOTk5MzMzJSIgZ3JhZGllbnRUcmFuc2Zvcm09Im1hdHJpeCgwIC0xIDEuMDAwMDA3MDEgMCAtLjAwMDAxNyAyLjAwMDAxKSIgY3k9IjEwMC4wMDEwNDIlIiBjeD0iOTkuOTk5OTk0JSIgaWQ9ImgiPjxzdG9wIHN0b3AtY29sb3I9IiMwMDkwYzQiIG9mZnNldD0iMCIvPjxzdG9wIHN0b3AtY29sb3I9IiMwMDVkOGMiIG9mZnNldD0iMSIvPjwvcmFkaWFsR3JhZGllbnQ+PHJhZGlhbEdyYWRpZW50IHI9Ijk5Ljk5OTk5MiUiIGdyYWRpZW50VHJhbnNmb3JtPSJtYXRyaXgoMSAwIDAgLjk5OTk4NjAzIDAgLjAwMDAxNCkiIGN5PSI5OS45OTg5MDIlIiBjeD0iMCUiIGlkPSJpIj48c3RvcCBzdG9wLWNvbG9yPSIjMDBjZDFjIiBvZmZzZXQ9IjAiLz48c3RvcCBzdG9wLWNvbG9yPSIjMDBlOTUwIiBvZmZzZXQ9IjEiLz48L3JhZGlhbEdyYWRpZW50PjxyYWRpYWxHcmFkaWVudCByPSI5OS45OTk5OTIlIiBncmFkaWVudFRyYW5zZm9ybT0ibWF0cml4KDAgMSAtMS4wMDAwMDA3NiAwIDAgMCkiIGN5PSItLjAwMDAxMiUiIGN4PSItLjAwMDAwNyUiIGlkPSJqIj48c3RvcCBzdG9wLWNvbG9yPSIjYjFjOGZkIiBvZmZzZXQ9IjAiLz48c3RvcCBzdG9wLWNvbG9yPSIjN2VjM2ZkIiBvZmZzZXQ9IjEiLz48L3JhZGlhbEdyYWRpZW50PjxyYWRpYWxHcmFkaWVudCByPSI5OS45OTk5OTIlIiBncmFkaWVudFRyYW5zZm9ybT0ibWF0cml4KC0xIDAgMCAtMS4wMDAwMDA3NiAyIDApIiBjeT0iLS4wMDAwMDclIiBjeD0iOTkuOTk5OTg3JSIgaWQ9ImsiPjxzdG9wIHN0b3AtY29sb3I9IiNlMTJhMDAiIG9mZnNldD0iMCIvPjxzdG9wIHN0b3AtY29sb3I9IiNiNjJmMDAiIG9mZnNldD0iMSIvPjwvcmFkaWFsR3JhZGllbnQ+PHJhZGlhbEdyYWRpZW50IHI9Ijk5Ljk5ODM2NCUiIGdyYWRpZW50VHJhbnNmb3JtPSJtYXRyaXgoMCAtMSAxLjAwMDAxNjk1IDAgLS4wMDAwMTcgMikiIGN5PSIxMDAlIiBjeD0iMTAwLjAwMDAwNyUiIGlkPSJsIj48c3RvcCBzdG9wLWNvbG9yPSIjMDBiNmRkIiBvZmZzZXQ9IjAiLz48c3RvcCBzdG9wLWNvbG9yPSIjMGZmIiBvZmZzZXQ9IjEiLz48L3JhZGlhbEdyYWRpZW50PjxwYXRoIGZpbGw9InVybCgjYSkiIGQ9Im0xNzkuMiAyMzAuNGg3Ni44bC0xMjIuODgtMTAyLjRjLTEuNjg3IDM3LjE5MyAxNC42ODcgNzMuNTggNDYuMDggMTAyLjQiLz48cGF0aCBmaWxsPSJ1cmwoI2IpIiBkPSJtMjUuNiAxNzkuMnY3Ni44bDEwMi40LTEyMi44OGMtMS43NDYtLjA3OS0zLjQ4My0uMTE4LTUuMjI1LS4xMTgtMzUuMzYuMDAyLTY5LjcwOCAxNi4yNzktOTcuMTc1IDQ2LjE5OCIvPjxwYXRoIGZpbGw9InVybCgjYykiIGQ9Im0wIDI1LjYgMTIyLjg4IDEwMi40YzEuNjg3LTM3LjE5Mi0xNC42ODctNzMuNTgtNDYuMDgtMTAyLjR6Ii8+PHBhdGggZmlsbD0idXJsKCNkKSIgZD0ibTIzMC40IDAtMTAyLjQgMTIyLjg3OWMzNy4xOTMgMS42ODggNzMuNTgtMTQuNjg3IDEwMi40LTQ2LjA4eiIvPjxwYXRoIGZpbGw9InVybCgjZSkiIGQ9Im0xMjggMTI4Yy0xMS40NzkgMjkuNzU1LTkuNzQ1IDYwLjA4NiA1LjEyIDg5LjYwMSAxNS4zNiA3LjY3OSAyOC4xNiAxMi43OTkgNDYuMDggMTIuNzk5LTMxLjM5My0yOC44Mi00Ny43NjctNjUuMjA3LTQ2LjA4LTEwMi40eiIvPjxwYXRoIGZpbGw9InVybCgjZikiIGQ9Im0zOC40IDEzMy4xMmMtNy42NzkgMTUuMzYxLTEyLjggMjguMTYtMTIuOCA0Ni4wOCAyOC44MTktMzEuMzkzIDY1LjIwNy00Ny43NjYgMTAyLjQtNDYuMDh2LTUuMTJjLTEyLjk0NC00Ljk5My0yNS45OTQtNy40ODYtMzkuMDQtNy40ODYtMTYuOTQ2LjAwMS0zMy44ODQgNC4yMDctNTAuNTYgMTIuNjA2Ii8+PHBhdGggZmlsbD0idXJsKCNnKSIgZD0ibTEyMi44OCAxMjhoNS4xMmMxMS40NzgtMjkuNzU1IDkuNzQ1LTYwLjA4Ny01LjEyLTg5LjYtMTUuMzYtNy42OC0yOC4xNTktMTIuOC00Ni4wOC0xMi44IDMxLjM5MyAyOC44MiA0Ny43NjcgNjUuMjA4IDQ2LjA4IDEwMi40Ii8+PHBhdGggZmlsbD0idXJsKCNoKSIgZD0ibTEyOCAxMjIuODc5djUuMTIxYzI5Ljc1NSAxMS40NzggNjAuMDg2IDkuNzQ0IDg5LjYtNS4xMjEgNy42OC0xNS4zNTggMTIuOC0yOC4xNTggMTIuOC00Ni4wOC0yOC44MiAzMS4zOTMtNjUuMjA3IDQ3Ljc2OC0xMDIuNCA0Ni4wOCIvPjxwYXRoIGZpbGw9InVybCgjaSkiIGQ9Im03MS42OCAxNjYuNCA2MS40NCA1MS4yMDFjLTE0Ljg2NS0yOS41MTUtMTYuNTk5LTU5Ljg0Ni01LjEyLTg5LjYwMS0xLjc3Ni0uNTkyLTMuODU4LS44NzYtNi4xNTgtLjg3Ni0xNy41OTkuMDAxLTQ3Ljg5OCAxNi42MzUtNTAuMTYyIDM5LjI3NiIvPjxwYXRoIGZpbGw9InVybCgjaikiIGQ9Im0zOC40IDEzMy4xMmMyOS41MTQtMTQuODY1IDU5Ljg0NS0xNi41OTggODkuNi01LjEyIDUuMTItMTUuMzU5LTEyLjgtNTMuNzYtMzguNC01Ni4zMnoiLz48cGF0aCBmaWxsPSJ1cmwoI2spIiBkPSJtMTI4IDEyOGMxNS4zNiA1LjEyIDUzLjc1OS0xMi44IDU2LjMyLTM4LjRsLTYxLjQ0LTUxLjJjMTQuODY1IDI5LjUxMyAxNi41OTggNTkuODQ1IDUuMTIgODkuNiIvPjxwYXRoIGZpbGw9InVybCgjbCkiIGQ9Im0xMjggMTI4Yy01LjEyIDE1LjM2MSAxMi44IDUzLjc2IDM4LjQgNTYuMzJsNTEuMi02MS40NDFjLTI5LjUxNCAxNC44NjUtNTkuODQ1IDE2LjU5OS04OS42IDUuMTIxIi8+PHBhdGggZD0ibTEyNy45OTk4IDEyMS42MDA0YzMuNTM1IDAgNi40IDIuODY1IDYuNCA2LjM5OSAwIDMuNTM2LTIuODY1IDYuNDAxLTYuNCA2LjQwMS0zLjUzNCAwLTYuMzk5LTIuODY1LTYuMzk5LTYuNDAxIDAtMy41MzQgMi44NjUtNi4zOTkgNi4zOTktNi4zOTkiLz48L3N2Zz4=;" vertex="1" parent="NeGIg2A49nrBojpMStaA-29">
          <mxGeometry x="17.5" width="35" height="35" as="geometry" />
        </mxCell>
        <mxCell id="NeGIg2A49nrBojpMStaA-20" value="&lt;span style=&quot;font-size: 10px;&quot;&gt;&lt;b&gt;APACHE&lt;/b&gt;&lt;/span&gt;&lt;div&gt;&lt;span style=&quot;font-size: 10px;&quot;&gt;&lt;b&gt;AIRFLOW&lt;/b&gt;&lt;/span&gt;&lt;/div&gt;" style="text;html=1;align=center;verticalAlign=middle;resizable=0;points=[];autosize=1;strokeColor=none;fillColor=none;" vertex="1" parent="NeGIg2A49nrBojpMStaA-29">
          <mxGeometry y="25" width="70" height="40" as="geometry" />
        </mxCell>
        <mxCell id="NeGIg2A49nrBojpMStaA-57" style="edgeStyle=orthogonalEdgeStyle;rounded=0;orthogonalLoop=1;jettySize=auto;html=1;entryX=1;entryY=0.5;entryDx=0;entryDy=0;" edge="1" parent="1" source="NeGIg2A49nrBojpMStaA-20" target="NeGIg2A49nrBojpMStaA-34">
          <mxGeometry relative="1" as="geometry" />
        </mxCell>
        <mxCell id="NeGIg2A49nrBojpMStaA-11" value="" style="sketch=0;pointerEvents=1;shadow=0;dashed=0;html=1;strokeColor=none;labelPosition=center;verticalLabelPosition=bottom;verticalAlign=top;align=center;fillColor=#00188D;shape=mxgraph.azure.file" vertex="1" parent="1">
          <mxGeometry x="372.5" y="291.61" width="25" height="30" as="geometry" />
        </mxCell>
        <mxCell id="NeGIg2A49nrBojpMStaA-19" value="&lt;b&gt;&lt;font style=&quot;font-size: 10px;&quot;&gt;PKL FILE&lt;/font&gt;&lt;/b&gt;" style="text;html=1;align=center;verticalAlign=middle;resizable=0;points=[];autosize=1;strokeColor=none;fillColor=none;" vertex="1" parent="1">
          <mxGeometry x="350" y="321.61" width="70" height="30" as="geometry" />
        </mxCell>
        <mxCell id="NeGIg2A49nrBojpMStaA-49" value="" style="group" vertex="1" connectable="0" parent="1">
          <mxGeometry x="530" y="283.39" width="85" height="60" as="geometry" />
        </mxCell>
        <mxCell id="NeGIg2A49nrBojpMStaA-50" value="" style="sketch=0;pointerEvents=1;shadow=0;dashed=0;html=1;strokeColor=none;labelPosition=center;verticalLabelPosition=bottom;verticalAlign=top;align=center;fillColor=#00188D;shape=mxgraph.azure.file" vertex="1" parent="NeGIg2A49nrBojpMStaA-49">
          <mxGeometry x="22.5" width="25" height="30" as="geometry" />
        </mxCell>
        <mxCell id="NeGIg2A49nrBojpMStaA-51" value="&lt;b&gt;&lt;font style=&quot;font-size: 10px;&quot;&gt;PARQUET FILE&lt;/font&gt;&lt;/b&gt;" style="text;html=1;align=center;verticalAlign=middle;resizable=0;points=[];autosize=1;strokeColor=none;fillColor=none;" vertex="1" parent="NeGIg2A49nrBojpMStaA-49">
          <mxGeometry x="-15" y="30" width="100" height="30" as="geometry" />
        </mxCell>
        <mxCell id="NeGIg2A49nrBojpMStaA-62" value="" style="group" vertex="1" connectable="0" parent="1">
          <mxGeometry x="430" y="283.39" width="100" height="65" as="geometry" />
        </mxCell>
        <mxCell id="NeGIg2A49nrBojpMStaA-54" value="" style="sketch=0;pointerEvents=1;shadow=0;dashed=0;html=1;strokeColor=none;labelPosition=center;verticalLabelPosition=bottom;verticalAlign=top;align=center;fillColor=#00188D;shape=mxgraph.azure.file" vertex="1" parent="NeGIg2A49nrBojpMStaA-62">
          <mxGeometry x="37.5" width="25" height="30" as="geometry" />
        </mxCell>
        <mxCell id="NeGIg2A49nrBojpMStaA-55" value="&lt;div&gt;&lt;b&gt;&lt;font style=&quot;font-size: 10px;&quot;&gt;TRAINING DATA&lt;/font&gt;&lt;/b&gt;&lt;/div&gt;&lt;b&gt;&lt;font style=&quot;font-size: 10px;&quot;&gt;CSV FILE&lt;/font&gt;&lt;/b&gt;" style="text;html=1;align=center;verticalAlign=middle;resizable=0;points=[];autosize=1;strokeColor=none;fillColor=none;" vertex="1" parent="NeGIg2A49nrBojpMStaA-62">
          <mxGeometry y="25" width="100" height="40" as="geometry" />
        </mxCell>
        <mxCell id="NeGIg2A49nrBojpMStaA-63" value="" style="rounded=0;whiteSpace=wrap;html=1;" vertex="1" parent="1">
          <mxGeometry x="490" y="140" width="120" height="105" as="geometry" />
        </mxCell>
        <mxCell id="NeGIg2A49nrBojpMStaA-10" value="" style="dashed=0;outlineConnect=0;html=1;align=center;labelPosition=center;verticalLabelPosition=bottom;verticalAlign=top;shape=mxgraph.weblogos.mongodb;aspect=fixed;" vertex="1" parent="1">
          <mxGeometry x="540" y="160" width="20" height="41.85" as="geometry" />
        </mxCell>
        <mxCell id="NeGIg2A49nrBojpMStaA-18" value="&lt;b&gt;&lt;font style=&quot;font-size: 10px;&quot;&gt;MONGODB&lt;/font&gt;&lt;/b&gt;" style="text;html=1;align=center;verticalAlign=middle;resizable=0;points=[];autosize=1;strokeColor=none;fillColor=none;" vertex="1" parent="1">
          <mxGeometry x="510" y="195" width="80" height="30" as="geometry" />
        </mxCell>
        <mxCell id="NeGIg2A49nrBojpMStaA-66" value="" style="rounded=0;whiteSpace=wrap;html=1;" vertex="1" parent="1">
          <mxGeometry x="340" y="140" width="120" height="105" as="geometry" />
        </mxCell>
        <mxCell id="NeGIg2A49nrBojpMStaA-24" value="" style="group" vertex="1" connectable="0" parent="1">
          <mxGeometry x="215" y="280" width="60" height="60" as="geometry" />
        </mxCell>
        <mxCell id="NeGIg2A49nrBojpMStaA-7" value="" style="sketch=0;outlineConnect=0;fontColor=#232F3E;gradientColor=none;fillColor=#232F3D;strokeColor=none;dashed=0;verticalLabelPosition=bottom;verticalAlign=top;align=center;html=1;fontSize=12;fontStyle=0;aspect=fixed;pointerEvents=1;shape=mxgraph.aws4.users;" vertex="1" parent="NeGIg2A49nrBojpMStaA-24">
          <mxGeometry x="10" width="35" height="35" as="geometry" />
        </mxCell>
        <mxCell id="NeGIg2A49nrBojpMStaA-23" value="&lt;span style=&quot;font-size: 10px;&quot;&gt;&lt;b&gt;USERS&lt;/b&gt;&lt;/span&gt;" style="text;html=1;align=center;verticalAlign=middle;resizable=0;points=[];autosize=1;strokeColor=none;fillColor=none;" vertex="1" parent="NeGIg2A49nrBojpMStaA-24">
          <mxGeometry y="30" width="60" height="30" as="geometry" />
        </mxCell>
        <mxCell id="NeGIg2A49nrBojpMStaA-40" value="" style="rounded=1;whiteSpace=wrap;html=1;fillColor=#000000;" vertex="1" parent="1">
          <mxGeometry x="375" y="160" width="50" height="50" as="geometry" />
        </mxCell>
        <mxCell id="NeGIg2A49nrBojpMStaA-6" value="" style="shape=image;verticalLabelPosition=bottom;labelBackgroundColor=default;verticalAlign=top;aspect=fixed;imageAspect=0;image=data:image/svg+xml,PHN2ZyB4bWxucz0iaHR0cDovL3d3dy53My5vcmcvMjAwMC9zdmciIHZpZXdCb3g9IjAgMCAxNTQgMTU0IiB3aWR0aD0iMjUwMCIgaGVpZ2h0PSIyNTAwIiBmaWxsPSJub25lIj48Y2lyY2xlIHI9Ijc3IiBmaWxsPSIjMDU5OThiIiBjeT0iNzciIGN4PSI3NyIvPjxwYXRoIGZpbGw9IiNmZmYiIGQ9Ik04MS4zNzUgMTguNjY3bC0zOC43NSA3MEg3Ny41bC0zLjg3NSA0Ni42NjYgMzguNzUtNzBINzcuNXoiLz48L3N2Zz4=;" vertex="1" parent="1">
          <mxGeometry x="385" y="171" width="30" height="30" as="geometry" />
        </mxCell>
        <mxCell id="NeGIg2A49nrBojpMStaA-21" value="&lt;span style=&quot;font-size: 10px;&quot;&gt;&lt;b&gt;API&lt;/b&gt;&lt;/span&gt;" style="text;html=1;align=center;verticalAlign=middle;resizable=0;points=[];autosize=1;strokeColor=none;fillColor=none;" vertex="1" parent="1">
          <mxGeometry x="380" y="210" width="40" height="30" as="geometry" />
        </mxCell>
        <mxCell id="NeGIg2A49nrBojpMStaA-45" value="" style="group" vertex="1" connectable="0" parent="1">
          <mxGeometry x="215" y="160" width="60" height="80" as="geometry" />
        </mxCell>
        <mxCell id="NeGIg2A49nrBojpMStaA-43" value="" style="rounded=1;whiteSpace=wrap;html=1;fillColor=#000000;" vertex="1" parent="NeGIg2A49nrBojpMStaA-45">
          <mxGeometry x="5" width="50" height="50" as="geometry" />
        </mxCell>
        <mxCell id="NeGIg2A49nrBojpMStaA-4" value="" style="shape=image;verticalLabelPosition=bottom;labelBackgroundColor=default;verticalAlign=top;aspect=fixed;imageAspect=0;image=data:image/svg+xml,PHN2ZyB4bWxucz0iaHR0cDovL3d3dy53My5vcmcvMjAwMC9zdmciIHZpZXdCb3g9Ii0xMS41IC0xMC4yMzE3NCAyMyAyMC40NjM0OCI+JiN4YTsgIDx0aXRsZT5SZWFjdCBMb2dvPC90aXRsZT4mI3hhOyAgPGNpcmNsZSBmaWxsPSIjNjFkYWZiIiByPSIyLjA1IiBjeT0iMCIgY3g9IjAiLz4mI3hhOyAgPGcgZmlsbD0ibm9uZSIgc3Ryb2tlLXdpZHRoPSIxIiBzdHJva2U9IiM2MWRhZmIiPiYjeGE7ICAgIDxlbGxpcHNlIHJ5PSI0LjIiIHJ4PSIxMSIvPiYjeGE7ICAgIDxlbGxpcHNlIHRyYW5zZm9ybT0icm90YXRlKDYwKSIgcnk9IjQuMiIgcng9IjExIi8+JiN4YTsgICAgPGVsbGlwc2UgdHJhbnNmb3JtPSJyb3RhdGUoMTIwKSIgcnk9IjQuMiIgcng9IjExIi8+JiN4YTsgIDwvZz4mI3hhOzwvc3ZnPg==;" vertex="1" parent="NeGIg2A49nrBojpMStaA-45">
          <mxGeometry x="12.5" y="9.780000000000001" width="35" height="30.43" as="geometry" />
        </mxCell>
        <mxCell id="NeGIg2A49nrBojpMStaA-22" value="&lt;span style=&quot;font-size: 10px;&quot;&gt;&lt;b&gt;CLIENT&lt;/b&gt;&lt;/span&gt;" style="text;html=1;align=center;verticalAlign=middle;resizable=0;points=[];autosize=1;strokeColor=none;fillColor=none;" vertex="1" parent="NeGIg2A49nrBojpMStaA-45">
          <mxGeometry y="50" width="60" height="30" as="geometry" />
        </mxCell>
        <mxCell id="NeGIg2A49nrBojpMStaA-46" style="edgeStyle=orthogonalEdgeStyle;rounded=0;orthogonalLoop=1;jettySize=auto;html=1;entryX=0;entryY=0.5;entryDx=0;entryDy=0;startArrow=classic;startFill=1;" edge="1" parent="1" source="NeGIg2A49nrBojpMStaA-43" target="NeGIg2A49nrBojpMStaA-40">
          <mxGeometry relative="1" as="geometry" />
        </mxCell>
        <mxCell id="NeGIg2A49nrBojpMStaA-67" style="edgeStyle=orthogonalEdgeStyle;rounded=0;orthogonalLoop=1;jettySize=auto;html=1;entryX=0.464;entryY=1.039;entryDx=0;entryDy=0;entryPerimeter=0;" edge="1" parent="1" source="NeGIg2A49nrBojpMStaA-7" target="NeGIg2A49nrBojpMStaA-22">
          <mxGeometry relative="1" as="geometry" />
        </mxCell>
      </root>
    </mxGraphModel>
  </diagram>
</mxfile>
